<svg id="icons" enable-background="new 0 0 64 64" height="512" viewBox="0 0 64 64" width="512" xmlns="http://www.w3.org/2000/svg"><g fill="#ccd1d9"><path d="m28 44h8v3h-8z"/><path d="m36 58-4 5-4-5z"/><path d="m28 51h8v3h-8z"/></g><path d="m26 40h2 8 2c1.101 0 2 .89 2 2 0 1.1-.899 2-2 2h-2-8-2c-1.11 0-2-.9-2-2 0-1.11.89-2 2-2z" fill="#e6e9ed"/><path d="m26 47h2 8 2c1.101 0 2 .89 2 2 0 1.1-.899 2-2 2h-2-8-2c-1.11 0-2-.9-2-2 0-1.11.89-2 2-2z" fill="#e6e9ed"/><path d="m28 37h8v3h-8z" fill="#ccd1d9"/><path d="m26 54h2 8 2c1.101 0 2 .9 2 2s-.899 2-2 2h-2-8-2c-1.11 0-2-.9-2-2s.89-2 2-2z" fill="#e6e9ed"/><path d="m57 16.5c0 4.98-2.35 9.41-6 12.25v6.25c0 1.1-.899 2-2 2h-13-8-13c-1.1 0-2-.9-2-2v-6.25c-3.649-2.84-6-7.27-6-12.25 0-8.56 6.94-15.5 15.5-15.5 3.58 0 6.87 1.23 9.5 3.27 2.62-2.04 5.91-3.27 9.5-3.27 8.561 0 15.5 6.94 15.5 15.5z" fill="#e6e9ed"/><path d="m41.5 1c-.681 0-1.347.058-2.004.144 7.613.983 13.5 7.476 13.5 15.356 0 4.98-2.35 9.41-6 12.25v6.25c0 1.1-.899 2-2 2h4.004c1.101 0 2-.9 2-2v-6.25c3.65-2.84 6-7.27 6-12.25 0-8.56-6.939-15.5-15.5-15.5z" fill="#ccd1d9"/><path d="m50.998 36.001c-.553 0-1-.447-1-1v-6.251c0-.552.447-1 1-1s1 .448 1 1v6.251c0 .553-.447 1-1 1z"/><path d="m48.998 37.999c-.553 0-1-.447-1-1s.447-1 1-1c.552 0 1-.448 1-1 0-.553.447-1 1-1s1 .447 1 1c0 1.654-1.346 3-3 3z"/><path d="m13.002 36.001c-.553 0-1-.447-1-1v-6.251c0-.552.447-1 1-1s1 .448 1 1v6.251c0 .553-.447 1-1 1z"/><path d="m15.002 37.999c-1.654 0-3-1.346-3-3 0-.553.447-1 1-1s1 .447 1 1c0 .552.448 1 1 1 .553 0 1 .447 1 1s-.447 1-1 1z"/><path d="m48.998 37.999h-33.996c-.553 0-1-.447-1-1s.447-1 1-1h33.996c.553 0 1 .447 1 1s-.447 1-1 1z"/><path d="m32 64c-.304 0-.592-.139-.781-.376l-4-5.005c-.345-.431-.274-1.061.157-1.405.431-.346 1.061-.273 1.405.157l3.219 4.027 3.219-4.027c.345-.431.976-.503 1.405-.157.432.345.502.975.157 1.405l-4 5.005c-.189.237-.477.376-.781.376z"/><path d="m25.999 44.999c-1.654 0-3-1.346-3-3s1.346-3 3-3c.553 0 1 .447 1 1s-.447 1-1 1c-.552 0-1 .448-1 1s.448 1 1 1c.553 0 1 .447 1 1s-.447 1-1 1z"/><path d="m38.001 44.999c-.553 0-1-.447-1-1s.447-1 1-1c.552 0 1-.448 1-1s-.448-1-1-1c-.553 0-1-.447-1-1s.447-1 1-1c1.654 0 3 1.346 3 3s-1.346 3-3 3z"/><path d="m38.001 40.999h-12.002c-.553 0-1-.447-1-1s.447-1 1-1h12.002c.553 0 1 .447 1 1s-.447 1-1 1z"/><path d="m38.001 44.999h-12.002c-.553 0-1-.447-1-1s.447-1 1-1h12.002c.553 0 1 .447 1 1s-.447 1-1 1z"/><path d="m25.999 51.999c-1.654 0-3-1.346-3-3s1.346-3 3-3c.553 0 1 .447 1 1s-.447 1-1 1c-.552 0-1 .448-1 1s.448 1 1 1c.553 0 1 .447 1 1s-.447 1-1 1z"/><path d="m38.001 51.999c-.553 0-1-.447-1-1s.447-1 1-1c.552 0 1-.448 1-1s-.448-1-1-1c-.553 0-1-.447-1-1s.447-1 1-1c1.654 0 3 1.346 3 3s-1.346 3-3 3z"/><path d="m38.001 47.999h-12.002c-.553 0-1-.447-1-1s.447-1 1-1h12.002c.553 0 1 .447 1 1s-.447 1-1 1z"/><path d="m38.001 51.999h-12.002c-.553 0-1-.447-1-1s.447-1 1-1h12.002c.553 0 1 .447 1 1s-.447 1-1 1z"/><path d="m25.999 59c-1.654 0-3-1.346-3-3s1.346-3 3-3c.553 0 1 .447 1 1s-.447 1-1 1c-.552 0-1 .448-1 1s.448 1 1 1c.553 0 1 .447 1 1s-.447 1-1 1z"/><path d="m38.001 59c-.553 0-1-.447-1-1s.447-1 1-1c.552 0 1-.448 1-1s-.448-1-1-1c-.553 0-1-.447-1-1s.447-1 1-1c1.654 0 3 1.346 3 3s-1.346 3-3 3z"/><path d="m38.001 55h-12.002c-.553 0-1-.447-1-1s.447-1 1-1h12.002c.553 0 1 .447 1 1s-.447 1-1 1z"/><path d="m38.001 59h-12.002c-.553 0-1-.447-1-1s.447-1 1-1h12.002c.553 0 1 .447 1 1s-.447 1-1 1z"/><path d="m28 55c-.553 0-1-.447-1-1v-3.001c0-.553.447-1 1-1s1 .447 1 1v3.001c0 .553-.447 1-1 1z"/><path d="m36 55c-.553 0-1-.447-1-1v-3.001c0-.553.447-1 1-1s1 .447 1 1v3.001c0 .553-.447 1-1 1z"/><path d="m28 48c-.553 0-1-.447-1-1v-3.001c0-.553.447-1 1-1s1 .447 1 1v3.001c0 .553-.447 1-1 1z"/><path d="m36 48c-.553 0-1-.447-1-1v-3.001c0-.553.447-1 1-1s1 .447 1 1v3.001c0 .553-.447 1-1 1z"/><path d="m28 41c-.553 0-1-.447-1-1v-3.001c0-.553.447-1 1-1s1 .447 1 1v3.001c0 .553-.447 1-1 1z"/><path d="m36 41c-.553 0-1-.447-1-1v-3.001c0-.553.447-1 1-1s1 .447 1 1v3.001c0 .553-.447 1-1 1z"/><path d="m50.999 29.75c-.299 0-.594-.133-.791-.387-.339-.436-.26-1.064.177-1.403 3.568-2.771 5.615-6.948 5.615-11.46 0-7.995-6.505-14.5-14.5-14.5-3.24 0-6.313 1.058-8.886 3.06-.361.281-.867.281-1.229 0-2.572-2.002-5.645-3.06-8.885-3.06-7.995 0-14.5 6.505-14.5 14.5 0 4.512 2.046 8.689 5.614 11.46.437.338.516.967.177 1.403-.338.437-.965.518-1.403.176-4.06-3.152-6.388-7.905-6.388-13.039 0-9.098 7.402-16.5 16.5-16.5 3.435 0 6.703 1.043 9.5 3.025 2.797-1.982 6.065-3.025 9.5-3.025 9.098 0 16.5 7.402 16.5 16.5 0 5.134-2.328 9.887-6.389 13.04-.182.142-.398.21-.612.21z"/></svg>