<svg id="icons" enable-background="new 0 0 64 64" height="512" viewBox="0 0 64 64" width="512" xmlns="http://www.w3.org/2000/svg"><g fill="#e6e9ed"><path d="m39 29.505c-3.87 0-7 3.13-7 7v3 7h14v-7-3c0-3.87-3.13-7-7-7z"/><path d="m25 29.505c-3.87 0-7 3.13-7 7v3 7h14v-7-3c0-3.87-3.13-7-7-7z"/><path d="m60 36.495v.01 10h-14v-7-3c0-3.87 3.13-7 7-7s6.99 3.12 7 6.99z"/><path d="m18 39.505v7h-14v-10-.01c.01-3.87 3.13-6.99 7-6.99s7 3.13 7 7z"/></g><path d="m50 39.505v-3h6v6h-6z" fill="#ccd1d9"/><path d="m42 39.505v3h-6v-3-3h6z" fill="#ccd1d9"/><path d="m14 39.505v3h-6v-6h6z" fill="#ccd1d9"/><path d="m28 39.505v3h-6v-3-3h6z" fill="#ccd1d9"/><path d="m63 20.495v13c0 1.649-1.35 3-3 3-.01-3.87-3.13-6.99-7-6.99s-7 3.13-7 7c0-3.87-3.13-7-7-7s-7 3.13-7 7c0-3.87-3.13-7-7-7s-7 3.13-7 7c0-3.87-3.13-7-7-7s-6.99 3.12-7 6.99c-1.65 0-3-1.351-3-3v-13c0-1.65 1.35-3 3-3h56c1.65 0 3 1.35 3 3z" fill="#ec87c0"/><path d="m18 37.504c-.553 0-1-.447-1-1 0-3.309-2.691-6-6-6s-6 2.691-6 6c0 .553-.447 1-1 1s-1-.447-1-1c0-4.411 3.589-8 8-8s8 3.589 8 8c0 .553-.447 1-1 1z"/><path d="m32 37.504c-.553 0-1-.447-1-1 0-3.309-2.691-6-6-6s-6 2.691-6 6c0 .553-.447 1-1 1s-1-.447-1-1c0-4.411 3.589-8 8-8s8 3.589 8 8c0 .553-.447 1-1 1z"/><path d="m46 37.504c-.553 0-1-.447-1-1 0-3.309-2.691-6-6-6s-6 2.691-6 6c0 .553-.447 1-1 1s-1-.447-1-1c0-4.411 3.589-8 8-8s8 3.589 8 8c0 .553-.447 1-1 1z"/><path d="m60 37.504c-.553 0-1-.447-1-1 0-3.309-2.691-6-6-6s-6 2.691-6 6c0 .553-.447 1-1 1s-1-.447-1-1c0-4.411 3.589-8 8-8s8 3.589 8 8c0 .553-.447 1-1 1z"/><path d="m4 47.504c-.553 0-1-.447-1-1v-10c0-.553.447-1 1-1s1 .447 1 1v10c0 .553-.447 1-1 1z"/><path d="m18 47.504c-.553 0-1-.447-1-1v-10c0-.553.447-1 1-1s1 .447 1 1v10c0 .553-.447 1-1 1z"/><path d="m32 47.504c-.553 0-1-.447-1-1v-10c0-.553.447-1 1-1s1 .447 1 1v10c0 .553-.447 1-1 1z"/><path d="m46 47.504c-.553 0-1-.447-1-1v-10c0-.553.447-1 1-1s1 .447 1 1v10c0 .553-.447 1-1 1z"/><path d="m60 47.504c-.553 0-1-.447-1-1v-10c0-.553.447-1 1-1s1 .447 1 1v10c0 .553-.447 1-1 1z"/><path d="m60 47.504h-56c-.553 0-1-.447-1-1s.447-1 1-1h56c.553 0 1 .447 1 1s-.447 1-1 1z"/><path d="m14 43.504h-6c-.553 0-1-.447-1-1v-6c0-.553.447-1 1-1h6c.553 0 1 .447 1 1v6c0 .553-.447 1-1 1zm-5-2h4v-4h-4z"/><path d="m28 43.504h-6c-.553 0-1-.447-1-1v-6c0-.553.447-1 1-1h6c.553 0 1 .447 1 1v6c0 .553-.447 1-1 1zm-5-2h4v-4h-4z"/><path d="m42 43.504h-6c-.553 0-1-.447-1-1v-6c0-.553.447-1 1-1h6c.553 0 1 .447 1 1v6c0 .553-.447 1-1 1zm-5-2h4v-4h-4z"/><path d="m56 43.504h-6c-.553 0-1-.447-1-1v-6c0-.553.447-1 1-1h6c.553 0 1 .447 1 1v6c0 .553-.447 1-1 1zm-5-2h4v-4h-4z"/><path d="m23 40.504h-10c-.553 0-1-.447-1-1s.447-1 1-1h10c.553 0 1 .447 1 1s-.447 1-1 1z"/><path d="m22 40.504h-8c-.553 0-1-.447-1-1s.447-1 1-1h8c.553 0 1 .447 1 1s-.447 1-1 1z"/><path d="m37 40.504h-10c-.553 0-1-.447-1-1s.447-1 1-1h10c.553 0 1 .447 1 1s-.447 1-1 1z"/><path d="m51 40.504h-10c-.553 0-1-.447-1-1s.447-1 1-1h10c.553 0 1 .447 1 1s-.447 1-1 1z"/><path d="m60 37.5c-.553 0-1-.447-1-1s.447-1 1-1c1.103 0 2-.897 2-2v-13.004c0-1.103-.897-2-2-2h-56c-1.103 0-2 .897-2 2v13.004c0 1.103.897 2 2 2 .553 0 1 .447 1 1s-.447 1-1 1c-2.206 0-4-1.794-4-4v-13.004c0-2.206 1.794-4 4-4h56c2.206 0 4 1.794 4 4v13.004c0 2.206-1.794 4-4 4z"/></svg>