<svg id="icons" enable-background="new 0 0 64 64" height="512" viewBox="0 0 64 64" width="512" xmlns="http://www.w3.org/2000/svg"><path d="m63 3v18h-4v3l-6-3h-6v-8h-30v-1-9z" fill="#ccd1d9"/><path d="m39.29 31c-1.829 1.02-3.449 2.38-4.75 4-.97 1.199-1.76 2.55-2.35 4-.75 1.85-1.17 3.88-1.17 6h-17.02l-8 4v-4h-5v-32h16 30v8 8.02c-2.8 0-5.43.719-7.71 1.98z" fill="#e6e9ed"/><path d="m47.011 29.02h-.011c-2.8 0-5.43.72-7.71 1.98-1.829 1.02-3.449 2.38-4.75 4-.97 1.199-1.76 2.55-2.35 4-.75 1.85-1.17 3.88-1.17 6v.01c0 8.83 7.16 15.99 15.99 15.99s15.99-7.16 15.99-15.99-7.159-15.99-15.989-15.99z" fill="#ec87c0"/><path d="m45.521 51.01c0 1.1-.89 2-2 2h-1.5v-.01l-1-7c-1.21-.91-2-2.36-2-4 0-2.761 2.24-4.99 5-4.99 1.14 0 2.17.39 3.01 1.02.83-.63 1.87-1.02 3-1.02 2.76 0 5 2.229 5 4.99 0 1.64-.79 3.09-2 4.01l-1 6.99-1.51.01c-1.1 0-2-.9-2-2v-2.51c0-.82-.67-1.5-1.5-1.5-.82 0-1.5.68-1.5 1.5z" fill="#e6e9ed"/><path d="m6 50c-.183 0-.365-.05-.525-.149-.295-.182-.475-.504-.475-.851v-3h-4c-.553 0-1-.447-1-1v-32c0-.553.447-1 1-1h46c.553 0 1 .447 1 1v16.015c0 .553-.447 1-1 1s-1-.447-1-1v-15.015h-44v30h4c.553 0 1 .447 1 1v2.382l6.552-3.276c.138-.07.292-.106.447-.106h17.017c.553 0 1 .447 1 1s-.447 1-1 1h-16.78l-7.788 3.895c-.142.07-.295.105-.448.105z"/><path d="m59 25c-.153 0-.306-.035-.447-.105l-5.788-2.895h-5.765c-.553 0-1-.447-1-1s.447-1 1-1h6.001c.155 0 .309.036.447.105l4.552 2.277v-1.382c0-.553.447-1 1-1h3v-16h-44v9c0 .553-.447 1-1 1s-1-.447-1-1v-10c0-.553.447-1 1-1h46c.553 0 1 .447 1 1v18c0 .553-.447 1-1 1h-3v2c0 .347-.18.669-.475.851-.16.099-.342.149-.525.149z"/><path d="m27.016 20h-20c-.553 0-1-.447-1-1s.447-1 1-1h20c.553 0 1 .447 1 1s-.448 1-1 1z"/><path d="m15.016 24h-8c-.553 0-1-.447-1-1s.447-1 1-1h8c.553 0 1 .447 1 1s-.448 1-1 1z"/><path d="m41 24h-21.984c-.553 0-1-.447-1-1s.447-1 1-1h21.984c.553 0 1 .447 1 1s-.447 1-1 1z"/><path d="m18.016 32h-11c-.553 0-1-.447-1-1s.447-1 1-1h11c.553 0 1 .447 1 1s-.448 1-1 1z"/><path d="m39.287 32h-17.271c-.553 0-1-.447-1-1s.447-1 1-1h17.271c.553 0 1 .447 1 1s-.447 1-1 1z"/><path d="m30.012 28h-22.996c-.553 0-1-.447-1-1s.447-1 1-1h22.996c.553 0 1 .447 1 1s-.448 1-1 1z"/><path d="m41 28h-6.988c-.553 0-1-.447-1-1s.447-1 1-1h6.988c.553 0 1 .447 1 1s-.447 1-1 1z"/><path d="m41 20h-9.984c-.553 0-1-.447-1-1s.447-1 1-1h9.984c.553 0 1 .447 1 1s-.447 1-1 1z"/><path d="m27.016 36h-20c-.553 0-1-.447-1-1s.447-1 1-1h20c.553 0 1 .447 1 1s-.448 1-1 1z"/><path d="m15.016 40h-8c-.553 0-1-.447-1-1s.447-1 1-1h8c.553 0 1 .447 1 1s-.448 1-1 1z"/><path d="m32.184 40h-13.168c-.553 0-1-.447-1-1s.447-1 1-1h13.168c.553 0 1 .447 1 1s-.448 1-1 1z"/><path d="m34.534 36h-3.519c-.553 0-1-.447-1-1s.447-1 1-1h3.519c.553 0 1 .447 1 1s-.447 1-1 1z"/><path d="m47.008 62c-9.369 0-16.992-7.623-16.992-16.992s7.623-16.992 16.992-16.992 16.992 7.623 16.992 16.992-7.623 16.992-16.992 16.992zm0-31.984c-8.267 0-14.992 6.726-14.992 14.992s6.725 14.992 14.992 14.992 14.992-6.726 14.992-14.992-6.726-14.992-14.992-14.992z"/><path d="m53.027 47.002c-.304 0-.604-.138-.801-.399-.331-.441-.242-1.068.199-1.4 1.018-.765 1.601-1.932 1.601-3.202 0-2.205-1.794-3.999-4-3.999-.858 0-1.688.284-2.4.821-.355.27-.85.27-1.205 0-.712-.537-1.542-.821-2.4-.821-2.206 0-4 1.794-4 3.999 0 1.271.583 2.437 1.6 3.2.441.332.53.959.199 1.4-.334.441-.96.53-1.4.199-1.524-1.146-2.398-2.895-2.398-4.8 0-3.308 2.691-5.999 6-5.999 1.059 0 2.085.282 3.003.822.918-.54 1.944-.822 3.003-.822 3.309 0 6 2.691 6 5.999 0 1.905-.874 3.655-2.399 4.802-.182.135-.393.2-.602.2z"/><path d="m42.02 54c-.49 0-.918-.359-.989-.858l-1.001-7c-.078-.547.302-1.054.849-1.132.545-.078 1.054.302 1.132.849l1.001 7c.078.547-.302 1.054-.849 1.132-.049.006-.097.009-.143.009z"/><path d="m52.026 54c-.047 0-.095-.003-.143-.01-.547-.078-.927-.585-.849-1.132l1.001-6.998c.078-.547.587-.925 1.132-.849.547.078.927.585.849 1.132l-1.001 6.998c-.071.5-.498.859-.989.859z"/><path d="m48.521 49.5c-.553 0-1-.447-1-1 0-.275-.225-.5-.5-.5s-.5.225-.5.5c0 .553-.447 1-1 1s-1-.447-1-1c0-1.379 1.121-2.5 2.5-2.5s2.5 1.121 2.5 2.5c0 .553-.448 1-1 1z"/><path d="m50.521 54.001c-1.654 0-3-1.346-3-3 0-.553.447-1 1-1s1 .447 1 1c0 .552.448 1 1 1 .553 0 1 .447 1 1s-.448 1-1 1z"/><path d="m43.521 54.001c-.553 0-1-.447-1-1s.447-1 1-1c.552 0 1-.448 1-1 0-.553.447-1 1-1s1 .447 1 1c0 1.654-1.346 3-3 3z"/><path d="m45.521 52.001c-.553 0-1-.447-1-1v-2.501c0-.553.447-1 1-1s1 .447 1 1v2.501c0 .553-.448 1-1 1z"/><path d="m43.521 54.001h-1.5c-.553 0-1-.447-1-1s.447-1 1-1h1.5c.553 0 1 .447 1 1s-.448 1-1 1z"/><path d="m48.521 52.001c-.553 0-1-.447-1-1v-2.501c0-.553.447-1 1-1s1 .447 1 1v2.501c0 .553-.448 1-1 1z"/><path d="m52.025 54.001h-1.505c-.553 0-1-.447-1-1s.447-1 1-1h1.505c.553 0 1 .447 1 1s-.447 1-1 1z"/></svg>