<svg id="icons" enable-background="new 0 0 64 64" height="512" viewBox="0 0 64 64" width="512" xmlns="http://www.w3.org/2000/svg"><path d="m.992 34.506h62v26.001h-62z" fill="#ec87c0"/><path d="m59 21.5c0-9.39-7.61-17-17-17-3.74 0-7.19 1.22-10 3.27-2.811-2.05-6.25-3.27-10-3.27-9.391 0-17 7.61-17 17 0 5.22 2.35 9.88 6.05 13l-.05 25h8c4.97 0 9-4.03 9-9v-7c0-2.22 1.8-4.02 4.01-4.02 2.22 0 4.02 1.8 4.02 4.02v7c0 4.96 4.011 8.98 8.96 9h.04 8l-.05-25 .02-.04c3.67-3.12 6-7.77 6-12.96zm-13.971 34c-.01 0-.02 0-.029 0h-.011c-2.739-.02-4.96-2.25-4.96-5h-.02v-7c0-4.42-3.58-8-8-8s-8 3.58-8 8v7h-.009c0 2.76-2.24 5-5 5h-4l.029-30c0-3.85 3.12-6.96 6.971-6.96h19.989v-.04c3.87 0 7 3.13 7 7l.011 30z" fill="#e6e9ed"/><path d="m19 55.5h-4l.029-30c0-3.85 3.12-6.96 6.971-6.96h19.989v-.04c3.87 0 7 3.13 7 7l.011 30h-3.971c-.01 0-.02 0-.029 0h-.011c-2.739-.02-4.96-2.25-4.96-5h-.02v-7c0-4.42-3.58-8-8-8s-8 3.58-8 8v7h-.009c0 2.76-2.24 5-5 5z" fill="#ed5565"/><path d="m11.048 35.506c-.228 0-.456-.077-.644-.235-4.069-3.435-6.403-8.453-6.403-13.769 0-9.925 8.075-18 18-18 3.581 0 7.022 1.053 9.999 3.053 2.977-2 6.418-3.053 9.999-3.053 9.925 0 18 8.075 18 18 0 5.288-2.314 10.29-6.35 13.723-.418.356-1.05.31-1.409-.114-.357-.42-.307-1.052.113-1.409 3.588-3.052 5.646-7.498 5.646-12.199 0-8.822-7.178-16-16-16-3.394 0-6.647 1.065-9.409 3.081-.352.256-.828.256-1.18 0-2.762-2.016-6.016-3.081-9.409-3.081-8.822 0-16 7.178-16 16 0 4.726 2.075 9.187 5.692 12.239.423.356.476.987.12 1.409-.198.234-.48.355-.765.355z"/><path d="m10.997 60.498c-.001 0-.001 0-.002 0-.553-.001-.999-.45-.998-1.002l.052-24.992c.001-.552.448-.998 1-.998h.002c.553.001.999.45.998 1.002l-.052 24.992c-.001.552-.448.998-1 .998z"/><path d="m18.995 60.498c-.553 0-1-.447-1-1s.447-1 1-1c4.411 0 8-3.589 8-8 0-.553.447-1 1-1s1 .447 1 1c0 5.514-4.486 10-10 10z"/><path d="m18.995 60.498h-7.998c-.553 0-1-.447-1-1s.447-1 1-1h7.998c.553 0 1 .447 1 1s-.447 1-1 1z"/><path d="m53.026 60.498c-.552 0-.999-.446-1-.998l-.052-24.992c-.001-.552.445-1.001.998-1.002h.002c.552 0 .999.446 1 .998l.052 24.992c.001.552-.445 1.001-.998 1.002-.001 0-.001 0-.002 0z"/><path d="m45.028 60.498c-5.514 0-10-4.486-10-10 0-.553.447-1 1-1s1 .447 1 1c0 4.411 3.589 8 8 8 .553 0 1 .447 1 1s-.447 1-1 1z"/><path d="m53.026 60.498h-7.998c-.553 0-1-.447-1-1s.447-1 1-1h7.998c.553 0 1 .447 1 1s-.447 1-1 1z"/><path d="m36.026 44.502c-.553 0-1-.447-1-1 0-1.663-1.353-3.016-3.015-3.016-1.663 0-3.016 1.353-3.016 3.016 0 .553-.447 1-1 1s-1-.447-1-1c0-2.766 2.25-5.016 5.016-5.016 2.765 0 5.015 2.25 5.015 5.016 0 .553-.447 1-1 1z"/><path d="m40.01 44.502c-.553 0-1-.447-1-1 0-3.859-3.14-7-6.998-7-3.859 0-7 3.141-7 7 0 .553-.447 1-1 1s-1-.447-1-1c0-4.963 4.037-9 9-9 4.962 0 8.998 4.037 8.998 9 0 .553-.447 1-1 1z"/><path d="m27.995 51.498c-.553 0-1-.447-1-1v-6.994c0-.553.447-1 1-1s1 .447 1 1v6.994c0 .553-.447 1-1 1z"/><path d="m36.027 51.498c-.553 0-1-.447-1-1v-6.994c0-.553.447-1 1-1s1 .447 1 1v6.994c0 .553-.447 1-1 1z"/><path d="m49.002 56.499h-4.003c-.553 0-1-.447-1-1s.447-1 1-1h3.003l-.011-28.995c0-.552.447-1 1-1 .552 0 1 .447 1 1l.011 29.995c0 .265-.105.52-.293.707s-.441.293-.707.293zm-30.002 0h-4.001c-.266 0-.52-.105-.707-.293-.188-.188-.293-.442-.293-.708l.033-29.995c.001-.552.448-.999 1-.999h.001c.553.001 1 .449.999 1.001l-.032 28.994h3c.553 0 1 .447 1 1s-.447 1-1 1z"/><path d="m11.049 35.506h-10.049c-.553 0-1-.447-1-1s.447-1 1-1h10.049c.553 0 1 .447 1 1s-.447 1-1 1z"/><path d="m63 35.463h-9.998c-.553 0-1-.447-1-1s.447-1 1-1h9.998c.553 0 1 .447 1 1s-.447 1-1 1z"/><path d="m15.032 26.504c-.553 0-1-.447-1-1 0-4.393 3.574-7.967 7.967-7.967.553 0 1 .447 1 1s-.447 1-1 1c-3.29 0-5.967 2.677-5.967 5.967 0 .553-.447 1-1 1z"/><path d="m48.991 26.504c-.553 0-1-.447-1-1 0-3.312-2.694-6.006-6.006-6.006-.553 0-1-.447-1-1s.447-1 1-1c4.414 0 8.006 3.592 8.006 8.006 0 .553-.447 1-1 1z"/><path d="m41.985 19.537h-19.986c-.553 0-1-.447-1-1s.447-1 1-1h19.986c.553 0 1 .447 1 1s-.447 1-1 1z"/><path d="m19 60.498c-.553 0-1-.447-1-1v-25.993c0-.553.447-1 1-1s1 .447 1 1v25.993c0 .553-.447 1-1 1z"/><path d="m19 34.505c-.553 0-1-.447-1-1 0-3.859 3.141-7 7-7 .553 0 1 .447 1 1s-.447 1-1 1c-2.757 0-5 2.243-5 5 0 .553-.447 1-1 1z"/><path d="m25.002 28.501c-.553 0-1-.447-1-1s.447-1 1-1c1.102 0 1.998-.896 1.998-1.998 0-.553.447-1 1-1s1 .447 1 1c0 2.204-1.794 3.998-3.998 3.998z"/><path d="m28 31.498c-.553 0-1-.447-1-1 0-1.102-.896-1.998-1.998-1.998-.553 0-1-.447-1-1s.447-1 1-1c2.204 0 3.998 1.794 3.998 3.998 0 .553-.447 1-1 1z"/><path d="m44.992 60.498c-.553 0-1-.447-1-1v-25.993c0-.553.447-1 1-1s1 .447 1 1v25.993c0 .553-.447 1-1 1z"/><path d="m44.992 34.505c-.553 0-1-.447-1-1 0-2.757-2.243-5-5-5-.553 0-1-.447-1-1s.447-1 1-1c3.859 0 7 3.141 7 7 0 .553-.447 1-1 1z"/><path d="m38.99 28.501c-2.204 0-3.998-1.794-3.998-3.998 0-.553.447-1 1-1s1 .447 1 1c0 1.102.896 1.998 1.998 1.998.553 0 1 .447 1 1s-.447 1-1 1z"/><path d="m35.992 31.498c-.553 0-1-.447-1-1 0-2.204 1.794-3.998 3.998-3.998.553 0 1 .447 1 1s-.447 1-1 1c-1.102 0-1.998.896-1.998 1.998 0 .553-.447 1-1 1z"/><path d="m18.995 56.498c-.553 0-1-.447-1-1s.447-1 1-1c2.206 0 4-1.794 4-4 0-.553.447-1 1-1s1 .447 1 1c0 3.309-2.691 6-6 6z"/><path d="m45.028 56.498c-3.309 0-6-2.691-6-6 0-.553.447-1 1-1s1 .447 1 1c0 2.206 1.794 4 4 4 .553 0 1 .447 1 1s-.447 1-1 1z"/><path d="m24.012 51.498c-.553 0-1-.447-1-1v-6.996c0-.553.447-1 1-1s1 .447 1 1v6.996c0 .553-.448 1-1 1z"/><path d="m40.01 51.498c-.553 0-1-.447-1-1v-6.996c0-.553.447-1 1-1s1 .447 1 1v6.996c0 .553-.447 1-1 1z"/></svg>