<svg id="icons" enable-background="new 0 0 64 64" height="512" viewBox="0 0 64 64" width="512" xmlns="http://www.w3.org/2000/svg"><path d="m50 38.5v4.5c0 2.48-2.01 4.5-4.5 4.5s-4.5-2.02-4.5-4.5v-4.5z" fill="#e6e9ed"/><path d="m23.01 42.5v.5h-.01c0 2.48-2.01 4.5-4.5 4.5-2.48 0-4.5-2.02-4.5-4.5v-4.5h9 .01z" fill="#e6e9ed"/><path d="m48.95 11.63c-.56 6.65-6.14 11.87-12.94 11.87-4.64 0-8.7-2.43-11.01-6.08-1.26-2-1.99-4.38-1.99-6.92v-4h4v4c0 6.08 4.92 11 11 11 5.69 0 10.38-4.32 10.94-9.87z" fill="#ccd1d9"/><g fill="#e6e9ed"><path d="m41 38.5v4.5c0 2.48-2.01 4.5-4.5 4.5-2.48 0-4.5-2.02-4.5-4.5v-.5-4z"/><path d="m14 38.5v4.5c0 2.48-2.01 4.5-4.5 4.5-2.48 0-4.5-2.02-4.5-4.5v-.5-4z"/><path d="m59 42.5v.5c0 2.48-2.02 4.5-4.5 4.5-2.49 0-4.5-2.02-4.5-4.5v-4.5h9z"/></g><path d="m59 42.5c2.2 0 4 1.8 4 4v7c0 2.2-1.8 4-4 4h-54c-2.2 0-4-1.8-4-4v-7c0-2.2 1.8-4 4-4v.5c0 2.48 2.02 4.5 4.5 4.5 2.49 0 4.5-2.02 4.5-4.5 0 2.48 2.02 4.5 4.5 4.5 2.49 0 4.5-2.02 4.5-4.5h.01v-.5h1.99 2.5 2.5 2v.5c0 2.48 2.02 4.5 4.5 4.5 2.49 0 4.5-2.02 4.5-4.5 0 2.48 2.01 4.5 4.5 4.5s4.5-2.02 4.5-4.5c0 2.48 2.01 4.5 4.5 4.5 2.48 0 4.5-2.02 4.5-4.5z" fill="#ec87c0"/><path d="m54.498 48.499c-3.03 0-5.496-2.468-5.496-5.502 0-.553.447-1 1-1s1 .447 1 1c0 1.931 1.568 3.502 3.496 3.502 1.931 0 3.502-1.571 3.502-3.502 0-.553.447-1 1-1s1 .447 1 1c0 3.034-2.468 5.502-5.502 5.502z"/><path d="m45.5 48.499c-3.035 0-5.504-2.468-5.504-5.502 0-.553.447-1 1-1s1 .447 1 1c0 1.931 1.572 3.502 3.504 3.502 1.931 0 3.502-1.571 3.502-3.502 0-.553.447-1 1-1s1 .447 1 1c0 3.034-2.468 5.502-5.502 5.502z"/><path d="m36.504 48.499c-3.034 0-5.503-2.468-5.503-5.502 0-.553.447-1 1-1s1 .447 1 1c0 1.931 1.571 3.502 3.503 3.502 1.927 0 3.495-1.571 3.495-3.502 0-.553.447-1 1-1s1 .447 1 1c0 3.034-2.465 5.502-5.495 5.502z"/><path d="m9.501 48.499c-3.033 0-5.501-2.468-5.501-5.502 0-.553.447-1 1-1s1 .447 1 1c0 1.931 1.57 3.502 3.501 3.502 1.929 0 3.498-1.571 3.498-3.502 0-.553.447-1 1-1s1 .447 1 1c0 3.034-2.467 5.502-5.498 5.502z"/><path d="m18.502 48.499c-3.034 0-5.502-2.468-5.502-5.502 0-.553.447-1 1-1s1 .447 1 1c0 1.931 1.571 3.502 3.502 3.502 1.932 0 3.503-1.571 3.503-3.502 0-.553.447-1 1-1s1 .447 1 1c0 3.034-2.469 5.502-5.503 5.502z"/><path d="m32.001 43.997c-.553 0-1-.447-1-1v-4.493c0-.553.447-1 1-1s1 .447 1 1v4.493c0 .553-.447 1-1 1z"/><path d="m23.006 43.997c-.553 0-1-.447-1-1v-4.493c0-.553.447-1 1-1s1 .447 1 1v4.493c0 .553-.447 1-1 1z"/><path d="m13.999 43.997c-.553 0-1-.447-1-1v-4.493c0-.553.447-1 1-1s1 .447 1 1v4.493c0 .553-.447 1-1 1z"/><path d="m59 43.997c-.553 0-1-.447-1-1v-4.493c0-.553.447-1 1-1s1 .447 1 1v4.493c0 .553-.447 1-1 1z"/><path d="m50.002 43.997c-.553 0-1-.447-1-1v-4.493c0-.553.447-1 1-1s1 .447 1 1v4.493c0 .553-.447 1-1 1z"/><path d="m40.996 43.997c-.553 0-1-.447-1-1v-4.493c0-.553.447-1 1-1s1 .447 1 1v4.493c0 .553-.447 1-1 1z"/><path d="m5 43.997c-.553 0-1-.447-1-1v-4.493c0-.553.447-1 1-1s1 .447 1 1v4.493c0 .553-.447 1-1 1z"/><path d="m23.001 39.499h-18c-.553 0-1-.447-1-1s.447-1 1-1h18c.553 0 1 .447 1 1s-.447 1-1 1z"/><path d="m59 58.501h-54c-2.757 0-5-2.243-5-5v-7c0-2.757 2.243-5 5-5 .553 0 1 .447 1 1s-.447 1-1 1c-1.654 0-3 1.346-3 3v7c0 1.654 1.346 3 3 3h54c1.654 0 3-1.346 3-3v-7c0-1.654-1.346-3-3-3-.553 0-1-.447-1-1s.447-1 1-1c2.757 0 5 2.243 5 5v7c0 2.757-2.243 5-5 5z"/><path d="m59 39.504h-26.999c-.553 0-1-.447-1-1s.447-1 1-1h26.999c.553 0 1 .447 1 1s-.447 1-1 1z"/><path d="m25 42.493c-.553 0-1-.447-1-1v-24.071c0-.553.447-1 1-1s1 .447 1 1v24.071c0 .553-.447 1-1 1z"/><path d="m32.001 43.502h-8.995c-.553 0-1-.447-1-1s.447-1 1-1h8.995c.553 0 1 .447 1 1s-.447 1-1 1z"/><path d="m25 44.502c-.553 0-1-.447-1-1v-2c0-.553.447-1 1-1s1 .447 1 1v2c0 .553-.447 1-1 1z"/><path d="m30 44.502c-.553 0-1-.447-1-1v-2c0-.553.447-1 1-1s1 .447 1 1v2c0 .553-.447 1-1 1z"/><path d="m27.504 44.502c-.553 0-1-.447-1-1v-2c0-.553.447-1 1-1s1 .447 1 1v2c0 .553-.447 1-1 1z"/><path d="m36.007 24.503c-7.72 0-14-6.28-14-14 0-.553.447-1 1-1s1 .447 1 1c0 6.617 5.383 12 12 12s12-5.383 12-12c0-.553.447-1 1-1s1 .447 1 1c0 7.72-6.28 14-14 14z"/><path d="m38.007 22.503c-6.617 0-12-5.383-12-12 0-.553.447-1 1-1s1 .447 1 1c0 5.514 4.486 10 10 10s10-4.486 10-10c0-.553.447-1 1-1s1 .447 1 1c0 6.617-5.383 12-12 12z"/><path d="m27.007 7.499h-4c-.553 0-1-.447-1-1s.447-1 1-1h4c.553 0 1 .447 1 1s-.447 1-1 1z"/><path d="m23.007 11.503c-.553 0-1-.447-1-1v-4.004c0-.553.447-1 1-1s1 .447 1 1v4.004c0 .553-.447 1-1 1z"/><path d="m27.007 11.503c-.553 0-1-.447-1-1v-4.004c0-.553.447-1 1-1s1 .447 1 1v4.004c0 .553-.447 1-1 1z"/><path d="m25.03 10.498c-.553 0-1.005-.447-1.005-1s.442-1 .994-1h.011c.552 0 1 .447 1 1s-.448 1-1 1z"/></svg>