<svg id="icons" enable-background="new 0 0 64 64" height="512" viewBox="0 0 64 64" width="512" xmlns="http://www.w3.org/2000/svg"><path d="m46.945 24.096-10.36 10.37-.01-.01-2.11-2.11 10.37-10.36z" fill="#e6e9ed"/><path d="m62.545 7.806c.59.58.59 1.54 0 2.12-.58.59-1.53.59-2.12 0l-1.76-1.76-2.83-2.83-1.771-1.771c-.59-.59-.59-1.54 0-2.119.58-.591 1.53-.591 2.12 0z" fill="#f5f7fa"/><circle cx="49.995" cy="49.996" fill="#ec87c0" r="13"/><path d="m34.455 36.586-11.36 11.36-3.531.71-4.239-4.23.71-3.54 11.36-11.361z" fill="#ac92ec"/><path d="m31.635 29.525 2.83 2.821 2.11 2.11.01.01-2.13 2.12-7.06-7.061 2.12-2.119z" fill="#656d78"/><path d="m58.665 8.166-11.7 11.7h-.01l-2.82-2.83 11.7-11.7z" fill="#e6e9ed"/><path d="m49.425 22.346c.59.58.59 1.53 0 2.12-.58.58-1.54.58-2.12 0l-.01-.02-.35-.351-2.11-2.109-2.83-2.83-2.12-2.12-.35-.36-.011.01c-.579-.59-.579-1.54 0-2.12.521-.52 1.311-.579 1.891-.199l.24.189 2.47 2.48h.01l2.82 2.83h.01l2.47 2.47z" fill="#f5f7fa"/><path d="m34.261 15.948h2.998v14.665h-2.998z" fill="#e6e9ed" transform="matrix(-.707 -.707 .707 -.707 44.584 65.029)"/><path d="m54.005 50.246-.5 4.76h-1.5c-1.08 0-1.95-.84-2-1.9-.06 1.061-.93 1.9-2 1.9h-1.5l-.5-4.76c-.62-.55-1-1.351-1-2.24 0-1.66 1.34-3 3-3 .77 0 1.46.3 2 .78.53-.48 1.22-.78 1.99-.78 1.66 0 3.01 1.34 3.01 3 0 .89-.39 1.69-1 2.24z" fill="#e6e9ed"/><path d="m42.005 19.156 2.83 2.83-10.37 10.36-2.83-2.821z" fill="#ccd1d9"/><path d="m19.564 48.656v.01l-4.239 2.83-1.42-1.42-1.41-1.41 2.83-4.24z" fill="#656d78"/><path d="m16.032 41.889c-.256 0-.512-.098-.707-.293-.391-.391-.391-1.023 0-1.414l23.854-23.854c.391-.391 1.023-.391 1.414 0s.391 1.023 0 1.414l-23.854 23.854c-.195.195-.451.293-.707.293z"/><path d="m23.091 48.947c-.256 0-.512-.098-.707-.293-.391-.391-.391-1.023 0-1.414l23.854-23.854c.391-.391 1.023-.391 1.414 0s.391 1.023 0 1.414l-23.854 23.854c-.195.196-.451.293-.707.293z"/><path d="m15.324 45.422c-.065 0-.131-.006-.197-.02-.542-.108-.893-.636-.784-1.177l.709-3.533c.109-.543.636-.896 1.177-.784.542.108.893.636.784 1.177l-.709 3.533c-.096.476-.513.804-.98.804z"/><path d="m19.566 49.655c-.467 0-.884-.328-.979-.803-.108-.542.242-1.069.783-1.178l3.523-.708c.539-.112 1.068.242 1.178.783.108.542-.242 1.069-.783 1.178l-3.523.708c-.067.014-.133.02-.199.02z"/><path d="m19.567 49.655c-.256 0-.511-.098-.706-.292l-4.244-4.233c-.392-.39-.392-1.023-.002-1.414.391-.393 1.023-.391 1.414-.002l4.244 4.233c.392.39.392 1.023.002 1.414-.195.197-.452.294-.708.294z"/><path d="m12.494 49.667c-.19 0-.383-.055-.554-.168-.459-.306-.584-.927-.277-1.387l2.828-4.245c.306-.46.925-.584 1.387-.277.459.306.584.927.277 1.387l-2.828 4.245c-.192.289-.51.445-.833.445z"/><path d="m15.324 52.494c-.323 0-.641-.156-.833-.445-.307-.46-.182-1.081.277-1.387l4.244-2.828c.46-.306 1.08-.183 1.387.277s.182 1.081-.277 1.387l-4.244 2.828c-.171.113-.363.168-.554.168z"/><path d="m15.323 52.494c-.256 0-.512-.098-.707-.293l-2.828-2.827c-.391-.391-.391-1.023 0-1.414s1.023-.391 1.414 0l2.828 2.827c.391.391.391 1.023 0 1.414-.195.195-.451.293-.707.293z"/><path d="m1.005 63.985c-.256 0-.512-.098-.707-.293-.391-.391-.391-1.023 0-1.414l12.904-12.904c.391-.391 1.023-.391 1.414 0s.391 1.023 0 1.414l-12.904 12.904c-.195.196-.451.293-.707.293z"/><path d="m39.526 17.687c-.256 0-.512-.098-.707-.293-.975-.975-.975-2.561 0-3.535s2.561-.975 3.535 0c.391.391.391 1.023 0 1.414s-1.023.391-1.414 0c-.195-.195-.512-.195-.707 0-.194.195-.194.512 0 .707.391.391.391 1.023 0 1.414-.195.195-.451.293-.707.293z"/><path d="m48.365 25.903c-.668 0-1.296-.26-1.769-.732-.391-.391-.391-1.023 0-1.414s1.023-.391 1.414 0c.128.127.276.146.354.146.077 0 .226-.019.352-.146.129-.128.147-.276.147-.354s-.019-.227-.146-.354c-.391-.391-.391-1.023 0-1.414s1.023-.391 1.414 0c.473.473.733 1.102.732 1.771-.001.668-.261 1.295-.733 1.766-.469.471-1.096.73-1.764.731z"/><path d="m54.063 4.565c-.256 0-.512-.098-.707-.293-.975-.975-.975-2.561 0-3.535s2.561-.975 3.535 0c.391.391.391 1.023 0 1.414s-1.023.391-1.414 0c-.195-.195-.512-.195-.707 0-.194.195-.194.512 0 .707.391.391.391 1.023 0 1.414-.195.196-.451.293-.707.293z"/><path d="m61.486 11.366c-.64 0-1.28-.243-1.768-.729-.391-.39-.393-1.022-.002-1.414s1.023-.392 1.414-.002c.194.195.514.194.708.001.195-.195.195-.514 0-.709-.391-.391-.391-1.023 0-1.414s1.023-.391 1.414 0c.976.976.976 2.562 0 3.537-.485.486-1.126.73-1.766.73z"/><path d="m47.298 25.446c-.256 0-.512-.098-.707-.293l-7.766-7.768c-.391-.391-.391-1.023 0-1.414s1.023-.391 1.414 0l7.766 7.768c.391.391.391 1.023 0 1.414-.195.196-.451.293-.707.293z"/><path d="m49.431 23.339c-.256 0-.512-.098-.707-.293l-7.777-7.779c-.391-.391-.391-1.023 0-1.414s1.023-.391 1.414 0l7.777 7.779c.391.391.391 1.023 0 1.414-.196.195-.451.293-.707.293z"/><path d="m34.456 37.582c-.256 0-.512-.098-.707-.293l-7.059-7.058c-.391-.391-.391-1.023 0-1.414s1.023-.391 1.414 0l7.059 7.058c.391.391.391 1.023 0 1.414-.195.195-.451.293-.707.293z"/><path d="m36.577 35.461c-.256 0-.512-.098-.707-.293l-7.059-7.058c-.391-.391-.391-1.023 0-1.414s1.023-.391 1.414 0l7.059 7.058c.391.391.391 1.023 0 1.414-.195.195-.451.293-.707.293z"/><path d="m31.64 30.522c-.256 0-.512-.098-.707-.293-.391-.391-.391-1.023 0-1.414l10.367-10.367c.391-.391 1.023-.391 1.414 0s.391 1.023 0 1.414l-10.367 10.367c-.196.196-.451.293-.707.293z"/><path d="m34.468 33.351c-.256 0-.512-.098-.707-.293-.391-.391-.391-1.023 0-1.414l10.369-10.368c.391-.391 1.023-.391 1.414 0s.391 1.023 0 1.414l-10.369 10.368c-.196.195-.451.293-.707.293z"/><path d="m44.128 18.034c-.256 0-.512-.098-.707-.293-.391-.391-.391-1.023 0-1.414l11.709-11.709c.391-.391 1.023-.391 1.414 0s.391 1.023 0 1.414l-11.709 11.709c-.195.196-.451.293-.707.293z"/><path d="m46.956 20.862c-.256 0-.512-.098-.707-.293-.391-.391-.391-1.023 0-1.414l11.709-11.709c.391-.391 1.023-.391 1.414 0s.391 1.023 0 1.414l-11.709 11.709c-.195.196-.451.293-.707.293z"/><path d="m60.425 10.929c-.256 0-.512-.098-.707-.293l-6.361-6.363c-.391-.391-.391-1.023 0-1.414s1.023-.391 1.414 0l6.361 6.363c.391.391.391 1.023 0 1.414-.195.195-.451.293-.707.293z"/><path d="m62.546 8.806c-.256 0-.512-.098-.707-.293l-6.361-6.361c-.391-.391-.391-1.023 0-1.414s1.023-.391 1.414 0l6.361 6.361c.391.391.391 1.023 0 1.414-.195.195-.451.293-.707.293z"/><path d="m49.995 63.995c-7.72 0-14-6.28-14-14s6.28-14 14-14 14 6.28 14 14-6.28 14-14 14zm0-26c-6.617 0-12 5.383-12 12s5.383 12 12 12 12-5.383 12-12-5.383-12-12-12z"/><path d="m53.501 56.006c-.035 0-.07-.002-.105-.006-.549-.058-.947-.549-.89-1.099l.5-4.762c.058-.55.554-.954 1.099-.89.549.058.947.549.89 1.099l-.5 4.762c-.055.514-.488.896-.994.896z"/><path d="m52 56.006c-1.654 0-3.001-1.347-3.001-3.001 0-.553.447-1 1-1s1 .447 1 1c0 .552.449 1.001 1.001 1.001.553 0 1 .447 1 1s-.447 1-1 1z"/><path d="m49.999 54.005c-.553 0-1-.447-1-1v-.999c0-.553.447-1 1-1s1 .447 1 1v.999c0 .553-.447 1-1 1z"/><path d="m46.501 56.006c-.506 0-.939-.382-.993-.896l-.501-4.763c-.059-.549.34-1.041.89-1.099.539-.064 1.041.34 1.099.89l.501 4.763c.059.549-.34 1.041-.89 1.099-.036.004-.071.006-.106.006z"/><path d="m48.002 56.006c-.553 0-1-.447-1-1s.447-1 1-1c.552 0 1.001-.449 1.001-1.001 0-.553.447-1 1-1s1 .447 1 1c0 1.654-1.347 3.001-3.001 3.001z"/><path d="m50.003 54.005c-.553 0-1-.447-1-1v-.999c0-.553.447-1 1-1s1 .447 1 1v.999c0 .553-.447 1-1 1z"/><path d="m54 51.244c-.274 0-.548-.112-.746-.334-.367-.411-.332-1.044.08-1.412.424-.379.667-.922.667-1.491 0-1.104-.898-2.002-2.002-2.002-.621 0-1.066.283-1.33.521-.381.342-.959.342-1.338 0-.264-.237-.709-.521-1.33-.521-1.104 0-2.001.898-2.001 2.002 0 .568.243 1.111.667 1.49.412.368.447 1.001.08 1.412-.37.413-1.001.446-1.412.08-.849-.758-1.335-1.844-1.335-2.982 0-2.207 1.795-4.002 4.001-4.002.705 0 1.393.19 1.999.545.607-.354 1.295-.545 1.999-.545 2.207 0 4.002 1.795 4.002 4.002 0 1.138-.486 2.225-1.335 2.983-.19.17-.429.254-.666.254z"/><path d="m48.002 56.006h-1.5c-.553 0-1-.447-1-1s.447-1 1-1h1.5c.553 0 1 .447 1 1s-.447 1-1 1z"/><path d="m53.5 56.006h-1.5c-.553 0-1-.447-1-1s.447-1 1-1h1.5c.553 0 1 .447 1 1s-.447 1-1 1z"/></svg>