<svg xmlns="http://www.w3.org/2000/svg" width="70" height="246" viewBox="0 0 70 246">
    <g id="top1" transform="translate(-886.5 -84.265)">        
        <g id="surface" transform="translate(913.475 262.616) rotate(30)">
            <path id="shape"
                d="M8.9,1.586C20.032-4.449,40.871,7.867,44.957,19.508c5.863,16.7-35.341,37.378-42.325,22.71C-1.969,32.557-.933,6.916,8.9,1.586Z"
                transform="translate(45.526 47.274) rotate(180)" fill="#f5f5f5" stroke="#717171" stroke-linecap="round"
                stroke-linejoin="round" stroke-width="0.5" fill-rule="evenodd"></path>
            <path id="l"
                d="M6.887,1.564c3.678-1.994,8.418-1.986,13.7-.516.848.234,4.333,15.242-3.468,19.606C9.954,24.664-.434,13.285.014,11.778,1.339,7.321,3.63,3.329,6.887,1.564Z"
                transform="translate(43.513 47.252) rotate(180)" fill="#f5f5f5" fill-rule="evenodd"></path>
            <path id="m"
                d="M.467.036C9.835,2.8,19.436,10.636,22.116,18.27c1.366,3.891.177,8-2.7,12.05-.407.574-1.659,2.058-1.659,2.058S5.8,25.278,1.713,15.078C.474,11.984,1.4,10.462,1.282,6.567S-.9-.369.467.036Z"
                transform="translate(22.687 46.036) rotate(180)" fill="#f5f5f5" fill-rule="evenodd"></path>
            <path id="d"
                d="M19.618,33.958c-.132.037-.265.072-.7.186-6.9,1.822-13.808,1.107-16.312-4.152C-.318,23.856-.967,11.274,1.615,1c.033-.137.271-1,.271-1A28.61,28.61,0,0,0,6.978,5.55c1.19,1.03,5.688,2.675,8.848,9.776S22.272,33.225,19.618,33.958Z"
                transform="translate(45.498 35.048) rotate(180)" fill="#f5f5f5" fill-rule="evenodd"></path>
            <path id="b"
                d="M8.926,6.681C11.943,5.046,15.187,0,15.187,0l5.642,4.044a50.343,50.343,0,0,1-9.159,7.391A56.386,56.386,0,0,1,.462,16.352a14.358,14.358,0,0,0,.3-3.18A15.977,15.977,0,0,0,0,9.309,22.651,22.651,0,0,0,8.926,6.681Z"
                transform="translate(25.745 17.649) rotate(180)" fill="#f5f5f5" fill-rule="evenodd"></path>
            <path id="o"
                d="M0,9.541A18.863,18.863,0,0,1,5.957,2.832C9.222.769,15.084,0,15.084,0S16.828,5.967,18.6,10.2a32.059,32.059,0,0,0,5.812,8.694s-4.613-2.455-7.9-.91-4.25,4.157-5.24,7.088a39,39,0,0,0-4.534-8.917A32.261,32.261,0,0,0,0,9.541Z"
                transform="translate(10.551 8.334)" fill="#eaeaea"></path>
        </g>
        <g id="crown" transform="translate(897.789 192.862)">
            <path id="crown-2" data-name="crown"
                d="M1571.82,569.007s4.878,24.457,7.215,35.725S1575.86,620.9,1564,620.849s-32.677-.2-32.677-12.933,4.069-35.42,9.625-39.094S1571.82,569.007,1571.82,569.007Z"
                transform="translate(-1531.323 -567.236)" fill="#f5f5f5" stroke="#707070" stroke-width="0.5">
            </path>
        </g>
        <g id="root" transform="translate(904.95 100.593)">
            <path id="root-2" data-name="root"
                d="M1617.19,230.122s-.369-57.869-12.375-84.022c-3.89-8.474-5.7-10.17-7.843-10.33-3.5-.335-4.508,10.33-4.508,10.33l-2.24,30.284-6.473,56.3s.376-4.252,9.143-4.515S1617.19,230.122,1617.19,230.122Z"
                transform="translate(-1583.751 -135.762)" fill="#f2ecbe" stroke="#707070" stroke-width="0.5">
            </path>
        </g>        
    </g>
</svg>