<svg xmlns="http://www.w3.org/2000/svg" width="70" height="246" viewBox="0 0 70 246">
    <g id="top2" transform="translate(-835.5 -87.579)">        
        <g id="surface" transform="translate(845.034 275.771)">
            <path id="shape"
                d="M10.979.506C-1.431,3.767.055,38.76.055,38.76,4.023,47.232,45.9,40.773,42.8,30.913,37.393,13.7,24.926-3.158,10.98.506Z"
                transform="matrix(-0.985, -0.174, 0.174, -0.985, 42.322, 49.521)" fill="#f5f5f5" stroke="#707070"
                stroke-linecap="round" stroke-linejoin="round" stroke-width="0.5" fill-rule="evenodd"></path>
            <path id="l"
                d="M7.331.508C4.065,1.366,1.762,4.422.012,8.823-.362,9.757,8.223,21.2,13.967,20.157S23.9,5.383,22.988,4.635C18.484.941,13.031-.985,7.332.508Z"
                transform="matrix(-0.985, -0.174, 0.174, -0.985, 38.728, 48.887)" fill="#f5f5f5" fill-rule="evenodd">
            </path>
            <path id="m"
                d="M11.2,30.937a13.5,13.5,0,0,0,3.983,1.415,13.511,13.511,0,0,0,3.666-2.558,4.2,4.2,0,0,0,1.06-3.83A63.647,63.647,0,0,0,11.554,8.277,64.186,64.186,0,0,0,4.092,0,54.772,54.772,0,0,1,1.524,7.8,24.861,24.861,0,0,1,.053,10.6C-.671,11.818,6.236,27.1,11.2,30.937Z"
                transform="matrix(-0.985, -0.174, 0.174, -0.985, 20.631, 40.663)" fill="#f5f5f5" fill-rule="evenodd">
            </path>
            <path id="d"
                d="M3.618,0A79.61,79.61,0,0,0,.653,13.769,124.965,124.965,0,0,0,.045,29.9,5.237,5.237,0,0,0,1.9,31.757c1.267.863,5.072,1.57,5.072,1.57a6.064,6.064,0,0,0,1.151-1.309c3.151-5.891,2.9-23.13,2.018-23.9A29.806,29.806,0,0,1,7.376,5.386,34.176,34.176,0,0,1,3.618,0Z"
                transform="matrix(-0.985, -0.174, 0.174, -0.985, 43.854, 40.787)" fill="#f5f5f5" fill-rule="evenodd">
            </path>
            <path id="b"
                d="M15.706,6.09C11.238,7.264,3.133,4.774,3.133,4.774a32.069,32.069,0,0,1-1.2,5.151A6.882,6.882,0,0,1,0,12.894a43.264,43.264,0,0,0,7.337.489,74.226,74.226,0,0,0,9.489-.934A59.953,59.953,0,0,0,27.121,9.895a27.929,27.929,0,0,0,4.638-2.169,6.957,6.957,0,0,1-5.294-1.565A27.393,27.393,0,0,1,21.959,0s-2.138,5-6.252,6.086Z"
                transform="matrix(-0.985, -0.174, 0.174, -0.985, 40.635, 19.475)" fill="#f5f5f5" fill-rule="evenodd">
            </path>
            <path id="o"
                d="M14.323,16.446s1.1,3.3,2,6.759a60.978,60.978,0,0,1,1.334,7.252s3.14-3.691,6.208-3.423,6.353,4.206,6.353,4.206a74.411,74.411,0,0,1,1.1-8.47A70.58,70.58,0,0,1,33.5,14.676S25.809,10.8,20.907,11.312A8.278,8.278,0,0,0,14.323,16.446Z"
                transform="translate(4.902 -0.404)" fill="#eaeaea"></path>
        </g>
        <g id="crown" transform="translate(849.144 193.658)">
            <path id="crown-2" data-name="crown"
                d="M36.9,3.723S37.83,22.8,40.619,36.05,36.59,52.134,30.856,54.184,1.877,49.611.173,39.2,6.389,5.451,6.389,5.451s1.68-3.575,2.683-3.907C11.789.642,15.766-.3,22.649.287A60.433,60.433,0,0,1,36.9,3.723Z"
                transform="translate(0.067 -0.105)" fill="#f5f5f5" stroke="#707070" stroke-width="0.5"></path>
        </g>
        <g id="root" transform="translate(856.411 103.674)">
            <path id="root-2" data-name="root"
                d="M1391.29,256.2s-5.208-63.738-6.683-79.857-8.892-12.955-8.892-12.955-5.693-10.195-7.986,14.5c-2.1,22.644-6.153,78.454-6.153,78.454s.4-2.263,3.648-2.945a37.742,37.742,0,0,1,9.762-.76C1382.59,252.793,1391.29,256.2,1391.29,256.2Z"
                transform="translate(-1361.576 -161.302)" fill="#f2ecbe" stroke="#707070" stroke-width="0.5">
            </path>
        </g>
    </g>
</svg>