<svg xmlns="http://www.w3.org/2000/svg" width="70.167" height="246" viewBox="0 0 70.167 246">
    <g id="top3" transform="translate(-795.5 -84.089)">        
        <g id="surface" transform="translate(803.906 266.839)">
            <path id="shape"
                d="M.967,6.811c-2.883,10.44.809,23.049,9.378,29.605,5.288,4.046,13.725,3.484,19.319.941,6.281-2.856,10.215-9.715,11.877-16.319,1.517-6.029-2.4-20.481-8.887-19.865C18.918,2.476,4.244-5.057.967,6.811Z"
                transform="matrix(-0.574, -0.819, 0.819, -0.574, 24.029, 56.874)" fill="#f5f5f5" stroke="#707070"
                stroke-linecap="round" stroke-linejoin="round" stroke-width="0.5" fill-rule="evenodd"></path>
            <path id="l"
                d="M.99,6.833A22.376,22.376,0,0,0,.427,17.766c.329,2.026,16.346,7.458,21.33.392C26.276,11.752,16.873.343,14.987.179,8.443-.394,2.86.06.99,6.833Z"
                transform="matrix(-0.574, -0.819, 0.819, -0.574, 24.023, 56.906)" fill="#f5f5f5" fill-rule="evenodd">
            </path>
            <path id="m"
                d="M26.582,17.9c.2-6.24-3.529-17.4-9.242-16.862C11.682,1.577,0,0,0,0A12.065,12.065,0,0,1,2.405,2.284a33.94,33.94,0,0,1,4.1,6.439c1.392,2.828-.749,2.651,4.271,4.946S26.561,18.757,26.582,17.9Z"
                transform="matrix(-0.574, -0.819, 0.819, -0.574, 15.348, 44.26)" fill="#f5f5f5" fill-rule="evenodd">
            </path>
            <path id="d"
                d="M0,0S.044.351.112.826A27.359,27.359,0,0,0,10.1,18.444c5.288,4.046,13.725,3.484,19.319.941C31.283,18.41,18.335,6.051,16.368,4.461s-3.64-.4-7.981-1.145A26.268,26.268,0,0,1,0,0Z"
                transform="matrix(-0.574, -0.819, 0.819, -0.574, 38.602, 46.354)" fill="#f5f5f5" fill-rule="evenodd">
            </path>
            <path id="b"
                d="M5.5,20.36a2.061,2.061,0,0,1,.514-.331C11.9,17.261,15.449,10.738,17.095,4.2a24.917,24.917,0,0,0,.328-2.727L10.323,0S9.89,5.822,7.268,9.092,0,13.049,0,13.049a33.116,33.116,0,0,1,3.8,4.172A12.825,12.825,0,0,1,5.5,20.36Z"
                transform="matrix(-0.574, -0.819, 0.819, -0.574, 23.787, 27.191)" fill="#f5f5f5" fill-rule="evenodd">
            </path>
            <path id="o"
                d="M13.806,17.058A48.366,48.366,0,0,1,15.9,23.817c.653,3.147.928,5.714.928,5.714s2.922-2.792,5.917-2.7,5.947,3.162,5.947,3.162l1.769-12.154s-3.923-3.575-8.093-3.684S13.806,17.058,13.806,17.058Z"
                transform="translate(4.031 1.784)" fill="#eaeaea"></path>
        </g>
        <g id="crown" transform="translate(807.825 196.033)">
            <path id="crown-2" data-name="crown"
                d="M34.051.152s13.989,23.034,10.734,31.5S26.965,49.965,22.626,50.427-.154,41.962,0,32.882,5.58,15.8,5.58,10.874C5.58,8.774,3.526,1.88,9.5.152,17.47-2.152,34.051.152,34.051.152Z"
                transform="translate(0.001)" fill="#f5f5f5" stroke="#707070" stroke-width="0.5"></path>
        </g>
        <g id="root" transform="translate(812.733 100.173)">
            <path id="root-2" data-name="root"
                d="M1147.78,156.18s-9.409-38.864-6.822-62.957,7.381-26.326-4.174-32.6-18.893,59.836-18.206,81.619c.243,7.668.723,17.607.723,17.607a6.6,6.6,0,0,1,3.657-3.672c1.845-.729,2.963-.9,12.773-.89S1147.78,156.18,1147.78,156.18Z"
                transform="translate(-1118.534 -60.208)" fill="#f2ecbe" stroke="#707070" stroke-width="0.5">
            </path>
        </g>        
    </g>
</svg>