<svg xmlns="http://www.w3.org/2000/svg" width="70" height="246" viewBox="0 0 70 246">
    <g id="top4" transform="translate(-740.5 -84.367)">        
        <g id="surface" transform="translate(752.829 276.837)">
            <path id="shape"
                d="M-50.437-83.268c3.447,1.947,7.124,3.039,8.986,5.577a13.36,13.36,0,0,1,2.279,8.8,21.888,21.888,0,0,1-2.585,9.058A17.326,17.326,0,0,1-48.9-52.246c-3.308,1.685-7.672,2.122-12.064,2.144-4.364.022-8.784-.35-12.426-1.882a18.8,18.8,0,0,1-8.506-7.2,14.059,14.059,0,0,1-2.391-9.452c.417-3.129,2.2-6.06,4.392-8.686,2.2-2.6,3.252-2.531,6.5-4.587,3.225-2.057,8.617-6.265,12.4-6.2S-53.911-85.215-50.437-83.268Z"
                transform="translate(84.367 88.112)" fill="#f5f5f5" stroke="#707070" stroke-width="0.5">
            </path>
            <path id="m"
                d="M-77.682-54.521a18.645,18.645,0,0,1-4.215-4.66,14.059,14.059,0,0,1-2.391-9.452c.417-3.129,2.2-6.06,4.392-8.686,1.465-1.737,14.128,5.827,13.647,12.329-.23,3.115-4.691,3.191-7.549,5.808S-77.267-54.2-77.682-54.521Z"
                transform="translate(84.367 88.112)" fill="#f5f5f5"></path>
            <path id="l"
                d="M-43.028-57.7A15.611,15.611,0,0,1-48.9-52.246c-3.308,1.685-7.672,2.122-12.064,2.144-4.364.022-8.784-.35-12.426-1.882a18.776,18.776,0,0,1-3.7-2.09c-.466-.328.5-2.906,3.7-5.5a23.92,23.92,0,0,1,4.333-2.254,24.129,24.129,0,0,1,5.913-2.1,16.719,16.719,0,0,1,7.652,0c2.824.814,3.476,2.8,6.592,4.351S-42.714-58.185-43.028-57.7Z"
                transform="translate(84.367 88.112)" fill="#f5f5f5"></path>
            <path id="d"
                d="M-45.982-81.026a12.09,12.09,0,0,1,4.532,3.335,13.36,13.36,0,0,1,2.279,8.8,21.888,21.888,0,0,1-2.585,9.058l-1.177,1.919a14.534,14.534,0,0,1-5.279-1.247c-.807-.343-4.357-3.855-3.747-9.73C-51.434-73.966-46.776-81.419-45.982-81.026Z"
                transform="translate(84.367 88.112)" fill="#f5f5f5"></path>
            <path id="b"
                d="M-50.437-83.268c1.241.7,4.209,2.144,4.209,2.144a9.04,9.04,0,0,1-6.2,3.9c-2.211.282-5.817-2.344-9.059-2.008-3.5.362-5.385,2.945-7.72,3.682-2.828.891-5.394-.2-7.5-1.383a9.737,9.737,0,0,0-2.834-.781,8.624,8.624,0,0,1,1.45-1.317c.94-.7,3.23-1.949,4.7-2.88,3.225-2.057,8.617-6.265,12.4-6.2S-53.911-85.215-50.437-83.268Z"
                transform="translate(84.367 88.112)" fill="#f5f5f5"></path>
            <path id="o"
                d="M19.316,38.966a5.257,5.257,0,0,0,.6-5.422c-1.422-3.007-6.583-7.118-6.583-7.118a10.143,10.143,0,0,0,4.864-.669c1.843-.776,3.689-2.931,6.761-3.325,2.8-.359,5.911,1.651,8.613,1.941a6.993,6.993,0,0,0,4.485-1.116s-3.23,5.668-3.392,10.286a13.949,13.949,0,0,0,2.075,7.832A11.894,11.894,0,0,0,29.692,37.4C25.268,36.768,19.316,38.966,19.316,38.966Z"
                transform="translate(-2.398 -13.503)" fill="#eaeaea"></path>
        </g>
        <g id="crown" transform="translate(747.239 196.101)">
            <path id="crown-2" data-name="crown"
                d="M39.77,2.9s4.13,9.26,7.245,15.858a15.911,15.911,0,0,1,0,12.889S36.121,46.223,23.8,50.059.421,34.1.012,27.555,9.525,2.9,9.525,2.9A40.445,40.445,0,0,1,23.8,0C31.356,0,39.77,2.9,39.77,2.9Z"
                transform="translate(0)" fill="#f5f5f5" stroke="#707070" stroke-width="0.5"></path>
        </g>
        <g id="root" transform="translate(756.79 102.504)">
            <path id="root-2" data-name="root"
                d="M922.656,182.372s-10.192-33.379-8.379-63.882.479-31.113-6.294-32.878a6.475,6.475,0,0,0-3.217,1.044,32.957,32.957,0,0,0-3.517,3.267c-2.441,2.787-4.143,16.672-6.32,30.923-2.057,13.467-.512,49.875-1.94,58.719-.032.212-.62,2.326-.62,2.326a38.532,38.532,0,0,1,14.188-2.742C914.129,179.268,922.656,182.372,922.656,182.372Z"
                transform="translate(-892.369 -85.612)" fill="#f2ecbe" stroke="#707070" stroke-width="0.5">
            </path>
        </g>
    </g>
</svg>