<svg xmlns="http://www.w3.org/2000/svg" width="70" height="246" viewBox="0 0 70 246">
    <g id="top5" transform="translate(-8.644 112.432)">        
        <g id="surface" transform="translate(-656.526 -206.952)">
            <path id="shape"
                d="M30.141,39.921c-5.718,3.238-17.225,1.092-23.914.717,0,0-5.441-1.911-6.218-11.957C-.233,25.538,4.11,21.83,3.6,18.16,2.577,10.863,7.647,2.026,12.684.7,25.756-2.731,32.2,7.1,35.641,15.529c3.152,7.716-.225,18.31-5.5,24.392Z"
                transform="translate(722.735 290.318) rotate(92)" fill="#f5f5f5" stroke="#707070" stroke-linecap="round"
                stroke-linejoin="round" stroke-width="0.5" fill-rule="evenodd"></path>
            <path id="m"
                d="M30.141,39.921c-5.718,3.238-13.436,1.434-20.125,1.06,0,0,.255-7.413,3-10.774,1.547-1.9,2.914,1.134,5.06,1.567s2.751-2.045,4.823-1.047,1.5,2.241,3.466,5.042c1.328,1.879,4.341,3.505,3.78,4.152Z"
                transform="translate(722.735 290.318) rotate(92)" fill="#f5f5f5" fill-rule="evenodd"></path>
            <path id="l"
                d="M30.343,39.665a22.974,22.974,0,0,1-3.921-4,17.232,17.232,0,0,1-2.014-3.645c-.263-.634,1.232-3.577.906-5.634-.256-1.6-2.32-2.394-2.282-4.68.038-2.256,1.579-3.727,1.9-6.365.226-1.882-1.545-4.44-1.3-5.7.318-1.653,6.246-3.991,6.246-3.991s4.662,6.44,6.4,11.938a22.975,22.975,0,0,1,.643,5.115c.4,5.733-2.235,11.511-6.275,16.631-.035.048-.294.336-.294.336Z"
                transform="translate(722.735 290.318) rotate(92)" fill="#f5f5f5" fill-rule="evenodd"></path>
            <path id="b"
                d="M10.01,40.94s-2.719-.242-3.783-.3c0,0-5.441-1.911-6.218-11.957C-.233,25.538,4.11,21.83,3.6,18.16A19.789,19.789,0,0,1,5.591,7.673c.291-.628.065,1.852,1.353,3.176,1.871,1.9,6.645,5.733,7.2,11.961.37,4.168-2.24,7.817-3.234,11.892a36.931,36.931,0,0,0-.9,6.238Z"
                transform="translate(722.735 290.318) rotate(92)" fill="#f5f5f5" fill-rule="evenodd"></path>
            <path id="d"
                d="M6.19,6.573C7.778,3.766,10.235,1.346,12.684.7c7.265-1.908,12.481.279,16.667,4.46-.007-.01.467.522.467.522a51.509,51.509,0,0,0-4.666,2.26c-2.475,1.36-.842,2.835-4.562,4s-6.31.553-10.316.66C7.191,12.687,5.1,8.49,6.19,6.573Z"
                transform="translate(722.735 290.318) rotate(92)" fill="#f5f5f5" fill-rule="evenodd"></path>
            <path id="o"
                d="M9.3,1.88s1.8,3.62,1.125,5.475-1.967,3-2.077,5.53,1.45,3.171,1.757,4.18c.307.992-.224,4.916-1,5.6-.322.274-1.456-1.609-2.532-1.609-.8.01-1.659,1.5-3.312,1.222-1.043-.175-2.052-1.2-3.129-1.731A2.692,2.692,0,0,0-1.96,20.51S.4,16.266-.22,12.01-4.6,3.354-4.6,3.354s7.569.551,9.115.383A19.87,19.87,0,0,0,9.3,1.88Z"
                transform="translate(712.959 304.026) rotate(89.026)" fill="#eaeaea"></path>
        </g>
        <g id="crown">
            <path id="main"
                d="M8.11,4.127C6.986,9.051-.43,18.593.02,30.288s-.337,11.8,11.237,15.7,8.652,4.822,14.158,2.77S45.079,38.9,43.056,26.7,36.764,10.18,36.089,4.127,9.235-.8,8.11,4.127Z"
                transform="translate(22)" fill="#f5f5f5" stroke="#707070" stroke-width="0.5"></path>
        </g>
        <g id="root" transform="translate(22)">
            <path id="root-2" data-name="root"
                d="M1394.03,306.969s-8.513-88.83-19.21-87.846-8.608,88.087-8.608,88.087,1.616-2.192,7.127-2.979,11.093-.979,14.916-.172a11.552,11.552,0,0,1,5.775,2.91Z"
                transform="translate(-1358.081 -303.524)" fill="#f2ecbe" stroke="#707070" stroke-width="0.5">
            </path>
        </g>              
    </g>
</svg>