<svg xmlns="http://www.w3.org/2000/svg" width="70" height="246" viewBox="0 0 70 246">
    <g id="top6" transform="translate(7.071 112.51)">        
        <g id="surface" transform="translate(-463.239 -218.26)">
            <path id="shape"
                d="M26.674.042c-3.9-.27-6.909.819-10.41,1.63C3.843,4.544-3.265,14.578,1.484,33.088c.95,3.7,3.289,6.539,5.692,9.733,3.96,5.272,9.375,9.416,16.255,8.257,9.111-1.535,15.031.584,17.876-13.283,2.667-13,5.819-36.338-14.633-37.752Z"
                transform="translate(519.533 294.343) rotate(90)" fill="#f5f5f5" stroke="#707070" stroke-linecap="round"
                stroke-linejoin="round" stroke-width="0.5" fill-rule="evenodd"></path>
            <path id="m"
                d="M16.186,50.316a13.063,13.063,0,0,0,7.245.761c1.855-.313,3.578-.474,5.546-.706.394-.046-1.667-1.587-1.954-6.728-.153-2.77,2.586-9.78,0-11.226s-7.451.893-10.344,5.442S15.083,49.852,16.186,50.316Z"
                transform="translate(519.533 294.343) rotate(90)" fill="#f5f5f5" fill-rule="evenodd"></path>
            <path id="ml"
                d="M29.152,50.366c5.782-.649,9.918-1.672,12.154-12.572.148-.724-1.943-.218-3.951-1.592s-1.869-3.961-4.082-3.9c-1.816.043-5.255,1.658-5.255,1.658a6.877,6.877,0,0,1,0,2.626c-.285,2.476-1.131,6.4-1,7.8C27.242,46.635,28.7,50.417,29.152,50.366Z"
                transform="translate(519.533 294.343) rotate(90)" fill="#f5f5f5" fill-rule="evenodd"></path>
            <path id="l"
                d="M41.379,37.44a87.141,87.141,0,0,0,1.575-9.873,53.07,53.07,0,0,0,.256-7.526s-.107.4-3.682.692-10.146-4.337-10.616.5c-.44,4.519,5.8,11.045,7.117,13.521S41.379,37.44,41.379,37.44Z"
                transform="translate(519.533 294.343) rotate(90)" fill="#f5f5f5" fill-rule="evenodd"></path>
            <path id="dl"
                d="M43.214,19.64c-.3-8.664-3.3-16.905-13.326-19.161,0,0-1.757,2.242-1.884,6.742-.04,1.422.855,2.547,1.392,4.5.9,3.289-.287,6.944,1.944,7.251a36.486,36.486,0,0,1,6.1,1.557c2.1.647,5.638-.409,5.638-.409S43.229,20.057,43.214,19.64Z"
                transform="translate(519.533 294.343) rotate(90)" fill="#f5f5f5" fill-rule="evenodd"></path>
            <path id="d"
                d="M26.674.042c-3.9-.27-6.909.819-10.41,1.63-.82.19-2.289.634-2.289.634s-1.483,3.956.91,6.866,5.389,6.287,8.822,6.557,2.724-2.4,4.394-5.8c.56-1.139-.3-1.553,0-4A21.975,21.975,0,0,1,29.834.468S27.9.127,26.674.042Z"
                transform="translate(519.533 294.343) rotate(90)" fill="#f5f5f5" fill-rule="evenodd"></path>
            <path id="db"
                d="M13.928,2.287A19.26,19.26,0,0,0,.505,17.042C.086,19,13.391,24.026,16.886,19.9c1.219-1.437,1.568-6.68,1.568-6.68s-3.394-2.947-4.525-5.681S14.1,2.23,13.928,2.287Z"
                transform="translate(519.533 294.343) rotate(90)" fill="#f5f5f5" fill-rule="evenodd"></path>
            <path id="b"
                d="M.4,17.6a30.613,30.613,0,0,0-.326,6.38,51.4,51.4,0,0,0,1.41,9.107c.074.29,12.99-.819,12.936-5.554-.015-1.357-1.726-6.051-1.726-6.051a16.531,16.531,0,0,1-5.508-.741A23.919,23.919,0,0,1,.4,17.6Z"
                transform="translate(519.533 294.343) rotate(90)" fill="#f5f5f5" fill-rule="evenodd"></path>
            <path id="mb"
                d="M1.484,33.088a16.834,16.834,0,0,0,1.64,4.01A57.179,57.179,0,0,0,7.176,42.82a22.875,22.875,0,0,0,8.46,7.265c.5.235-1.167-3.2-.529-7.7s3.341-7.172,1.8-9.749-4.943-1.53-7.977-.559a30.775,30.775,0,0,1-7.446,1.011Z"
                transform="translate(519.533 294.343) rotate(90)" fill="#f5f5f5" fill-rule="evenodd"></path>
            <path id="o"
                d="M-28.426-45.135A5.441,5.441,0,0,0-26.4-41.018c2.016,1.379,6.2,1.375,6.2,1.375s-3.28,3.344-2.442,6.323c.37,1.314,2.006,1.915,3.544,2.519,1.29.517,2.468.934,2.468.934a9.847,9.847,0,0,1-2.828.911c-1.151.231-3.29.238-4.344.391a3.535,3.535,0,0,0-1.68.57A2.3,2.3,0,0,0-28-29.651,11.556,11.556,0,0,0-34.066-27.6c-1.156.729-4.634,3.121-4.634,3.121a19.465,19.465,0,0,0-.508-2.889,19.253,19.253,0,0,0-1-2.748,2.3,2.3,0,0,0,1.789-2.25A7.834,7.834,0,0,0-40-37.784a15.294,15.294,0,0,0-3.422-3.453s2.252,1.068,3.719.43a3.552,3.552,0,0,0,2.289-2.82,9.261,9.261,0,0,0-.141-2.68s1.273,2.321,2.506,2.68C-33.85-43.243-28.426-45.135-28.426-45.135Z"
                transform="translate(526.187 352.641)" fill="#eaeaea"></path>
        </g>
        <g id="crown">
            <path id="main"
                d="M61.365,4.143s4.4,8.122,3.637,25.021S53.239,49.578,51.091,49.722s-12.735-.722-17.8-5.3S22.5,48.085,17.846,49,1.428,43.126.3,33.593,3.853,2.664,3.853,2.664,6.625.577,13.66-.442A99.993,99.993,0,0,1,32.251-1.611,105.787,105.787,0,0,1,50.955.426C58.3,1.814,61.365,4.143,61.365,4.143Z"
                transform="translate(-2)" fill="#f5f5f5" stroke="#707070" stroke-linecap="round" stroke-width="0.5">
            </path>
        </g>
        <g id="root">
            <path id="front"
                d="M1076.01,307.13a181.189,181.189,0,0,1-3.125-48.29c1.794-27.4-17.173-43.194-18.062-43.04s-1.408,1.587-1.834,1.672c-.388.077-.048-1.45-.274-1.792l-1.139-1.8s-5.452-4.184-7.88-4.157c-2.26.024-4.546,2.807-6.129,7.023a31.532,31.532,0,0,0-1.792,9.812c-.249,1.8,0,1.03,0,1.03s-11.084-17.933-14.306-4.846-5.082,23.615-2.958,37.284-.119,45.833-.119,45.833,5.724-4.474,27.264-4.347S1076.01,307.13,1076.01,307.13Z"
                transform="translate(-1016.563 -303.133)" fill="#f2ecbe" stroke="#707070" stroke-linecap="round"
                stroke-width="0.5"></path>
            <path id="back"
                d="M1120.78,215.251a2.667,2.667,0,0,1,.23.565c.924,3.025-1.18-.609,1.355,13.2.608,3.312.481,15.4-1.586,28.1s-4.741,22.78-9.892,17.444-7.012-42.33-7.048-46.6c-.081-9.545,4.792-17.68,7.048-18.123S1119.28,212.6,1120.78,215.251Z"
                transform="translate(-1084.763 -303.193)" fill="#bcb57f" stroke="#707070" stroke-linecap="round"
                stroke-width="0.5"></path>
        </g>       
    </g>
</svg>