<svg xmlns="http://www.w3.org/2000/svg" width="70" height="246" viewBox="0 0 70 246">
    <g id="top7" transform="translate(2.447 112.551)">      
        <g id="surface" transform="translate(42 25.752)">
            <path id="shape"
                d="M26.465.107C7.24-1.228-4.346,9.93,1.536,32.966A30.848,30.848,0,0,0,2.91,37.074C6.394,45.657,14.126,52.4,23.255,50.854c9.016-1.526,14.876.581,17.691-13.208C43.586,24.716,46.7,1.513,26.465.107Z"
                transform="translate(16.319 51.088) rotate(90)" fill="#f5f5f5" stroke="#707070"
                stroke-linecap="round" stroke-linejoin="round" stroke-width="0.5" fill-rule="evenodd"></path>
            <path id="m"
                d="M13.083,49.1a21.833,21.833,0,0,0,4.381,1.631,14.951,14.951,0,0,0,5.792.118c1.5-.254,3.763-.429,5.786-.693,1.638-.214,2.947-.5,2.947-.5s-2.885-.365-4.9-4.7S25.127,34.024,23.56,33.11s-4.67-3.933-7.379.261S13.083,49.1,13.083,49.1Z"
                transform="translate(16.319 51.088) rotate(90)" fill="#f5f5f5" fill-rule="evenodd"></path>
            <path id="ml"
                d="M31.9,49.678c4.115-.836,7.217-3.1,9.041-12.032.121-.6.422-2.146.422-2.146s-1.783.737-5.4-1.116c-3.535-1.814-3.329-4.589-6.171-4.7s-5.48,4.492-5.48,4.492.634,2.26.844,3.472a26.739,26.739,0,0,0,2.384,8.2C28.982,48.5,31.391,49.783,31.9,49.678Z"
                transform="translate(16.319 51.088) rotate(90)" fill="#f5f5f5" fill-rule="evenodd"></path>
            <path id="l"
                d="M41.363,35.518a99.41,99.41,0,0,0,1.444-11.093c.041-1.425.036-2.851-.025-4.591-.025-.736-9.33-5.308-12.129-2.708s.933,13.109.933,13.109a35.194,35.194,0,0,0,2.363,2.654,12.282,12.282,0,0,0,2.782,1.839,7.057,7.057,0,0,0,4.632.79Z"
                transform="translate(16.319 51.088) rotate(90)" fill="#f5f5f5" fill-rule="evenodd"></path>
            <path id="dl"
                d="M29.43,14.457c2.246,1.871,3.184,1.825,3.184,1.825l3.132.423a17.028,17.028,0,0,1,7.069,3.016,4.426,4.426,0,0,0,0-.6c-.3-7.675-2.922-15.245-11.559-18.144C31.065.9,21.691,8.011,29.43,14.457Z"
                transform="translate(16.319 51.088) rotate(90)" fill="#f5f5f5" fill-rule="evenodd"></path>
            <path id="d"
                d="M26.465.107A33.719,33.719,0,0,0,13.123,1.626c-.267.088-1.358.516-1.358.516s1.741,15.592,8.4,15.766c4.173.11,5.63-8.078,6.5-11.028S31.183.971,31.183.971s-.373-.1-.656-.187A16.192,16.192,0,0,0,26.465.107Z"
                transform="translate(16.319 51.088) rotate(90)" fill="#f5f5f5" fill-rule="evenodd"></path>
            <path id="db"
                d="M11.68,2.179s-.311.132-.735.323C5.232,5.045,1.261,10.223.211,18.117c-.254,1.9,11.72,3.327,15.243-1.369,1.3-1.732-.009-1.456-1.442-5.115A56.025,56.025,0,0,1,11.68,2.179Z"
                transform="translate(16.319 51.088) rotate(90)" fill="#f5f5f5" fill-rule="evenodd"></path>
            <path id="b"
                d="M.167,18.592s-.015.132-.054.508A40.626,40.626,0,0,0,1.536,32.966c.124.48.259.958.511,1.754.112.362,16.619-5.853,15.781-13.134-.258-2.24-1.13-1.515-3.525-2.487-1.416-.58-3.454.542-5.981.722a18.117,18.117,0,0,1-4.128,0A13.492,13.492,0,0,1,.167,18.592Z"
                transform="translate(16.319 51.088) rotate(90)" fill="#f5f5f5" fill-rule="evenodd"></path>
            <path id="mb"
                d="M2.1,34.877c.178.571.456,1.355.805,2.2a24.386,24.386,0,0,0,9.9,11.862l.36.206A51.653,51.653,0,0,1,14.234,39.03c1.085-4.623,3.141-7.981,2.317-9.1a5.149,5.149,0,0,0-2.494-1.556A37.667,37.667,0,0,1,8.9,31.838C5.43,33.871,2.044,34.684,2.1,34.877Z"
                transform="translate(16.319 51.088) rotate(90)" fill="#f5f5f5" fill-rule="evenodd"></path>
            <path id="o"
                d="M-16.2,67.648c.69,1.378,1.538,1.475,1.2,3.38s-1.9,3.274-2.548,4.238c.449,1.228,3,2.192,3.459,3.7a3.767,3.767,0,0,1,.725,1.756c.033.455-.363.906-.243,1.629-.076.126.453-.205,2.791-.613s5.062-1.469,7.83-1.017,2.852,2.588,2.852,2.588A14.738,14.738,0,0,1,3.8,78.725a16.177,16.177,0,0,1,3.67-1.452S.3,75.415-1.176,72.85.783,67.142.783,67.142a3.96,3.96,0,0,1-1.761-.907c-.7-.574-1.413-2.255-1.479-1.65-.03.281-.547,1.3-.71,2.108a3.015,3.015,0,0,1-.773,1.773c-.266.305-1.2.325-2.054.449-2.338.339-4.793-2.786-6.156-3.847-.458.625-.185,1.7-1.2,2.342S-15,67.463-16.2,67.648Z"
                fill="#eaeaea"></path>
        </g>
        <g id="crown">
         <path id="main"
            d="M7.28,2.856C6.548,6.058-4.356,28.983,1.96,36.77s8.444,12.3,13.364,11.5,8.511-7.351,17.154-.946,16.69-2.184,16.69-2.184,15.359-8.37,8.51-25.84S51.3,7.222,51.362,2.855,8.011-.347,7.28,2.856Z"
            transform="translate(3)" fill="#f5f5f5" stroke="#707070" stroke-width="0.5"></path>
        </g>
        <g id="root">
            <path id="front"
                d="M782.726,307.847s.039-37.642-5.248-49.238-10.292-21.641-14.932-23.328c-.812-.3-1.49-.515-2.131-.706-2.677-.8-3.235-.582-5.327-2.321-2.368-1.969-2.871-.22-5.058,4.155-.1.209-2.9-1.41-4.074-2.065a1.551,1.551,0,0,0-.422-.16s-3.934-.717-4.527,14.358c-.541,13.733-2.034,51.742-2.307,58.694l-.028.706a134.941,134.941,0,0,1,22.413-2.569,93.526,93.526,0,0,1,21.641,2.474Z"
                transform="translate(-728.368 -305.437)" fill="#f2ecbe" stroke="#707070" stroke-width="0.5">
            </path>
            <path id="back"
                d="M786.259,240.174s-4.718.019-.844,11.38,7.33,39,1.78,41.15-3.141-31.36-6.754-40.313-6.178-11.483-6.178-11.483-1.658-2.624-.531-3.926c1.243-1.435,10.409.959,11.473,1.941C786.425,240.049,786.259,240.174,786.259,240.174Z"
                transform="translate(-755.384 -311.343)" fill="#bcb57f" stroke="#707070" stroke-width="0.5">
            </path>
        </g>
        
    </g>
</svg>