<svg xmlns="http://www.w3.org/2000/svg" width="70" height="246" viewBox="0 0 70 246">
    <g id="top8" transform="translate(7.5 111.417)">     
      <g id="surface" transform="translate(2.293 65.829)">
        <path id="shape"
          d="M26.607.1C7.028-1.265-4.394,11.963,1.6,35.422,4.363,46.254,13.5,53.16,24.1,51.366c9.182-1.554,15.265-6.9,18.132-20.946C44.926,17.252,47.218,1.527,26.607.1Z"
          transform="translate(53.356 9.54) rotate(90)" fill="#f5f5f5" stroke="#707070"
          stroke-linecap="round" stroke-linejoin="round" stroke-width="1" fill-rule="evenodd"></path>
        <path id="l"
          d="M27.476,14.834a12.1,12.1,0,0,1-.957,4.6c-.807,1.536-2.13,3.182-2.582,5.084a5.921,5.921,0,0,0,1,4.391,24.912,24.912,0,0,1,3.445,1.555,17.66,17.66,0,0,1,2.672,1.672,6.909,6.909,0,0,0,2.578,1.477,31,31,0,0,0,7.575,1.1s.7-2.678,1.03-4.293c.359-1.759.913-4.839,1.281-7.468.277-1.975.372-3.513.372-3.513a13.32,13.32,0,0,1-8.465,0C31.74,18.14,27.642,13.685,27.476,14.834Z"
          transform="translate(53.356 9.54) rotate(90)" fill="#f5f5f5" fill-rule="evenodd"></path>
        <path id="b"
          d="M.423,18.27c-.77,3.886-.336,10.082.893,16,.066.322,3.337-.98,6.573-3.415a41.839,41.839,0,0,0,5.012-5.2c3.116-3.364.326-7.655.326-7.655a55.87,55.87,0,0,1-5.716.412C4.311,18.477.488,17.936.423,18.27Z"
          transform="translate(53.356 9.54) rotate(90)" fill="#f5f5f5" fill-rule="evenodd"></path>
        <path id="dl"
          d="M43.9,19.062c.456-7.275-1.13-13.975-9.21-17.28-1.084-.445-7,2.245-8.791,6.43-.481,1.1.924,1.617,1.313,2.875s-.319,2.8.352,3.422c.078.073.69.377,1.672,1.047a30.09,30.09,0,0,0,2.421,1.835c2.975,1.932,3.172,2.077,6.135,2.62a12.326,12.326,0,0,0,5.718-.448.646.646,0,0,0,.39-.5Z"
          transform="translate(53.356 9.54) rotate(90)" fill="#f5f5f5" fill-rule="evenodd"></path>
        <path id="d"
          d="M26.607.1C19.969-.366,14.27.85,9.63,3.721c-.245.151-1.616,3.6-.482,5.948.817,1.706,5.761,5.958,8.528,5.519.86-.136,4.452-4.706,5.479-5.287,1.414-.787,2.429-.682,2.548-1.2.333-1.386,1.93-3.267,4.1-4.977s4.881-1.977,4.265-2.206A27.475,27.475,0,0,0,26.607.1Z"
          transform="translate(53.356 9.54) rotate(90)" fill="#f5f5f5" fill-rule="evenodd"></path>
        <path id="db"
          d="M8.917,4.229c-4.04,2.7-7.123,7.405-8.362,13.657-.121.609,5.792.64,5.792.64s6.758-.21,6.843-.763c.189-.678-.78-1.4-1.613-3.279C10.8,12.713,9.654,11.258,8.9,8.869,8.244,6.8,9.374,3.921,8.917,4.229Z"
          transform="translate(53.356 9.54) rotate(90)" fill="#f5f5f5" fill-rule="evenodd"></path>
        <path id="o"
          d="M23,5.443c3.28,1.076,9.455-.629,10.489-.414S30.445,7.379,28.7,8.951s-1.152,2.581-.03,4.9c1.152,2.317,2.807,5.957,1.271,6.9-1.566.943-6.353-.794-8.982-2.9-2.63-2.085-3.1-4.534-4.934-5.378-1.861-.86-5.082-.116-8.51-.347C4.089,11.913.454,10.7.041,9.382s2.393-2.8,5.378-3.458c2.955-.678,6.087-.563,8.332-1.986C16.026,2.531,17.414-.414,18.33.049S19.69,4.368,23,5.443Z"
          transform="matrix(0.927, -0.375, 0.375, 0.927, 8.437, 27.646)" fill="#dedede"></path>
        <path id="ml"
          d="M35.172,45.969c2.435-2.339,4.375-5.8,5.891-10.891.007-.023.117-.422.117-.422s-7.059.05-9.6-2.071c-1.69-1.41-6.143-3.866-6.508-3.539-1.05.939,1.788,4.178,2.309,7.294a16.01,16.01,0,0,1,0,4.589l4.2,3.25a26.061,26.061,0,0,0,2.7,1.273C34.938,45.7,35.016,46.119,35.172,45.969Z"
          transform="translate(53.356 9.54) rotate(90)" fill="#f5f5f5" fill-rule="evenodd"></path>
        <path id="m"
          d="M12.941,49.914a18.446,18.446,0,0,0,11.164,1.452,19.719,19.719,0,0,0,10.787-5.122c.856-.807-3.513-1.193-6.681-4.815-1.174-1.344-1.889.951-2.961,0-.358-.325-3.53-2.51-4.551-4.85a38.249,38.249,0,0,0-2.025-3.55,16.341,16.341,0,0,0-6.122,5.907A27.842,27.842,0,0,0,9.8,47.986S11.888,49.4,12.941,49.914Z"
          transform="translate(53.356 9.54) rotate(90)" fill="#f5f5f5" fill-rule="evenodd"></path>
        <path id="mb"
          d="M1.316,34.4s.149.5.281,1.017C2.947,40.7,5.3,44.656,9.366,47.7c.952.715.729-4.458,2.884-8.325a19.25,19.25,0,0,1,6.351-6.3,9.514,9.514,0,0,0-4.154-3.433,22.488,22.488,0,0,1-2.141-1.033,3.874,3.874,0,0,1-1.1-.872A25.9,25.9,0,0,1,6.74,31.71,27.163,27.163,0,0,1,1.316,34.4Z"
          transform="translate(53.356 9.54) rotate(90)" fill="#f5f5f5" fill-rule="evenodd"></path>
      </g>
      <g id="crown">
        <path id="main"
          d="M8.708,4S-2.442,24.646.492,33.678s12.226,16.881,18.78,13.333,11.15,0,11.15,0,6.162,6.344,13.4,0S58.3,37.656,56.538,25.291A57.305,57.305,0,0,0,48.908,4s-9.74-4-19.789-4S8.708,4,8.708,4Z"
          transform="translate(3)" fill="#f5f5f5" stroke="#707070" stroke-width="0.5"></path>
      </g>
      <g id="root">
        <path id="front"
          d="M496.269,329.857s.988-39.768-3.417-51.883-9.011-20.625-16.42-22.027-6.744-1.968-10.749-3.37-3.857,3.333-3.857,3.333-3.716.337-3.716,12.852-2,60.867-2,60.867,10.749-3.929,21.09-3.929a49.6,49.6,0,0,1,19.069,4.157Z"
          transform="translate(-444.381 -325.919)" fill="#f2ecbe" stroke="#707070" stroke-width="0.5">
        </path>
        <path id="back"
          d="M494.485,250.255s-2.919,1.2.517,16.719,2.547,31.814-.592,31.873-5.628-27.9-5.332-36.968-4.5-10.784-6.28-11.465-1.789.144-1.789.144-1.837-5.3.722-5.263,4.373.61,7.562,1.85a17.69,17.69,0,0,1,5.192,3.11Z"
          transform="translate(-463.564 -320.367)" fill="#bcb57f" stroke="#707070" stroke-width="0.5">
        </path>
      </g>     
    </g>
  </svg>