<svg xmlns="http://www.w3.org/2000/svg" width="70" height="246" viewBox="0 0 70 246">
    <g id="bottom1" transform="translate(-1089.5 -480.367)">
        <g id="surface" transform="translate(1101.102 492.549) rotate(1)">
            <path id="shape"
                d="M31.863.657C44.4,4.707,43.31,46.227,43.31,46.227c-3.9,10-46.167,1.726-43.157-9.936C5.4,15.942,17.769-3.891,31.863.657Z"
                transform="translate(0 4.55) rotate(-6.03)" fill="#f5f5f5" stroke="#707070" stroke-linecap="round"
                stroke-linejoin="round" stroke-width="0.5" fill-rule="evenodd"></path>
            <path id="o"
                d="M7.062.069C6.472.4,5.42,5,3.811,9.869,2.111,14.995-.255,19.451.022,20.4s6.183,2.637,12.43,2.624,11.68-1.973,12.074-2.675c.222-.4-1.758-5.494-3.088-10.791-.9-3.592-1.132-7.581-1.536-8.237-.38-.618-.554-.786-1.617.405-1.018,1.139-3.039,3.027-4.921,2.937C10.163,4.517,8.352-.651,7.062.069Z"
                transform="translate(13.75 16.214)" fill="#eaeaea"></path>
            <path id="l"
                d="M15.442.66c2.157.7,3.911,2.5,5.47,5.253a14.044,14.044,0,0,1,.672,1.738S15.439,19.824,8.819,18.606C3.228,17.58,0,5.282,0,5.282s.838-.917,1.275-1.277C5.437.569,10.326-.988,15.442.66Z"
                transform="translate(16.322 2.823) rotate(-6.03)" fill="#f5f5f5" fill-rule="evenodd"></path>
            <path id="m"
                d="M4.385,38.588C1.361,36.6-.576,33.971.154,31.141,3.294,18.972,8.72,7.187,16.008.293c.041-.039.418-.293.418-.293a25.687,25.687,0,0,0,1.69,5.223,31.475,31.475,0,0,0,1.729,3.259C19.946,8.659,5.61,39.4,4.385,38.588Z"
                transform="translate(0.539 9.67) rotate(-6.03)" fill="#f5f5f5" fill-rule="evenodd"></path>
            <path id="d"
                d="M6.5.13c5.517,12.774,4.972,38.159,4.972,38.159-.653,1.674-4.373,4.258-6.126,3.623a1.774,1.774,0,0,0-.162-.45C4.427,39.692,0,7.974,0,7.974A16.429,16.429,0,0,0,3.182,4.64C4.1,3.365,5.029,1.471,5.907.34,6.142.028,6.385-.129,6.5.13Z"
                transform="translate(32.485 9.097) rotate(-6.03)" fill="#f5f5f5" fill-rule="evenodd"></path>
            <path id="b"
                d="M32.8,16.477c-8.249,1.989-23.9-.8-32.508-6.059C.326,10.443,0,10.2,0,10.2S1.012,8.629,2.243,6.811C2.751,6.041,5.973,0,5.973,0s6.544,3.233,12.611,3.766A29.251,29.251,0,0,0,30.243,2.134l1.6,11.508Z"
                transform="translate(8.066 37.471) rotate(-6.03)" fill="#f5f5f5" fill-rule="evenodd"></path>
        </g>
        <g id="crown" transform="translate(1099.472 568.915)">
            <path id="crown-2" data-name="crown"
                d="M4696.16,487.4s6.191-11.66,8.354-19.041c2.479-8.463,3.544-18.56,4.8-25.264,2.333-12.508-8.394-12.3-8.394-12.3s-15.692-5.166-25.121-1.033-10.953,6.346-12.593,17.563,2.52,38.8,2.52,38.8a30.737,30.737,0,0,0,13.561,4.044C4686.89,490.484,4696.16,487.4,4696.16,487.4Z"
                transform="translate(-4662.823 -428.159)" fill="#f5f5f5" stroke="#707070" stroke-width="0.5">
            </path>
        </g>
        <g id="root" transform="translate(1096.497 625.91)">
            <path id="root-2" data-name="root"
                d="M30.735,0,23.682,45.976s-.165.133-.933,11.377c-.8,11.76-6.069,24.677-12.429,25.583C-2.08,84.7,6.993,70.6,5.139,44.876S0,.538,0,.538A25.168,25.168,0,0,0,13.3,4.181C20.981,4.047,30.735,0,30.735,0Z"
                transform="translate(5.813 0) rotate(4.012)" fill="#f2ecbe" stroke="#707070" stroke-width="0.5"></path>
        </g>        
    </g>
</svg>