<svg xmlns="http://www.w3.org/2000/svg" width="70.453" height="246" viewBox="0 0 70.453 246">
    <g id="bottom2" transform="translate(-1000.5 -471.367)">
        <g id="surface" transform="translate(1023.814 483.677)">
            <path id="shape"
                d="M34.28,46.455C24.669,52,5.468,38.75,1.231,26.927-4.85,9.963,30.806-8.882,37.781,6.1c4.6,9.867,4.987,35.465-3.5,40.357Z"
                transform="matrix(-0.829, -0.559, 0.559, -0.829, 20.451, 60.161)" fill="#f5f5f5" stroke="#707070"
                stroke-linecap="round" stroke-linejoin="round" stroke-width="0.5" fill-rule="evenodd"></path>
            <path id="o"
                d="M21.609,17.419c-.858-.5-2.085,1.978-4.857,2.283s-2.9-1.562-4.051-1.6c-.523-.016-1.814,3.479-3.776,7.432-2.063,4.156-4.8,8.933-4.84,9.354-.069.772,4.763,2.523,10.007,2.8s10.659-.875,10.968-1.7l-1.8-9.681Z"
                fill="#eaeaea"></path>
            <path id="l"
                d="M34.28,46.455c-2.461,1.418-5.549,1.6-9.13.84-.62-.132-2.762-.829-2.762-.829S21.588,34,26.022,31.19s14.1,4.047,14.1,4.047-.431,2.025-.581,2.6C38.539,41.723,36.8,45,34.28,46.455Z"
                transform="matrix(-0.829, -0.559, 0.559, -0.829, 20.451, 60.161)" fill="#f5f5f5" fill-rule="evenodd">
            </path>
            <path id="m"
                d="M26.913.655C31.435.293,35.784,1.809,37.781,6.1c2.9,6.234,4.145,18.639,2.411,28.809.019-.106-.07.33-.07.33a43.878,43.878,0,0,0-5.167-2.98A23.248,23.248,0,0,0,29.948,30.6S26.012.724,26.913.655Z"
                transform="matrix(-0.829, -0.559, 0.559, -0.829, 20.451, 60.161)" fill="#f5f5f5" fill-rule="evenodd">
            </path>
            <path id="d"
                d="M22.4,46.479s-.16-.045-.6-.2C13.506,43.3,4.052,34.8,1.231,26.927-.05,23.355.52,19.7,2.5,15.928c.311-.6,20.566,20.468,20.566,20.468a45.8,45.8,0,0,0-.642,4.721,43.878,43.878,0,0,0-.024,5.362Z"
                transform="matrix(-0.829, -0.559, 0.559, -0.829, 20.451, 60.161)" fill="#f5f5f5" fill-rule="evenodd">
            </path>
            <path id="b"
                d="M2.514,15.82s.167-.247.378-.616C7.018,7.9,17.621,1.546,26.729.691h0l.977,11.05s-6.73,1.368-10.143,3.477c-2.692,1.664-7.95,7.327-7.95,7.327L5.66,18.666Z"
                transform="matrix(-0.829, -0.559, 0.559, -0.829, 20.451, 60.161)" fill="#f5f5f5" fill-rule="evenodd">
            </path>
        </g>
        <g id="crown" transform="translate(1000.5 511.5)">
            <path id="crown-2" data-name="crown"
                d="M9.171,60.675C8.483,56.832,2.983,18.4,1.036,14.791S-.454-.116,5.389,0,29.8,3.145,38.5,1.748s10.43,13.975,8.826,20.263S34.264,57.065,34.493,60.675,9.858,64.519,9.171,60.675Z"
                transform="translate(11.517 51.457)" fill="#f5f5f5" stroke="#707070" stroke-width="0.5">
            </path>
        </g>
        <g id="root" transform="translate(1014.487 588.543)">
            <path id="root-2" data-name="root"
                d="M22.472,18.514S21.7,38.809,18.6,60.229c-2.862,19.786-3.548,19.9-5.944,26.368C10.577,92.216,1.9,102.164-.02,96.125c-3.177-10-.944-5.56-.944-34.215,0-23.985-1.893-43.4-1.893-43.4s1,3.051,12.422,2.91S22.472,18.514,22.472,18.514Z"
                transform="translate(9.543 16.672)" fill="#f2ecbe" stroke="#707070" stroke-width="0.5"></path>
        </g>       
    </g>
</svg>