<svg xmlns="http://www.w3.org/2000/svg" width="73.686" height="246" viewBox="0 0 73.686 246">
    <g id="bottom3" transform="translate(-919.5 -467.367)">
        <g id="surface" transform="translate(936.959 475.06) rotate(8)">
            <path id="shape"
                d="M176.259,617.745c4.011,12.373.417,26.916-9.274,34.1-5.979,4.431-15.938,3.294-22.669,0-7.558-3.7-12.593-11.946-14.941-19.767-2.143-7.139,5.984-22.944,13.645-21.855C159.116,610.9,171.7,603.677,176.259,617.745Z"
                transform="matrix(0.719, -0.695, 0.695, 0.719, -526.29, -318.236)" fill="#f5f5f5" stroke="#707070"
                stroke-linecap="round" stroke-linejoin="round" stroke-width="0.5" fill-rule="evenodd"></path>
            <path id="o"
                d="M27.873,20.449c-.716-.925-2.278,2.913-4.848,3.025S18.484,19.718,17.6,20.9c-.414.55-.209,4.767-.855,9.962S14.9,41.036,15.009,41.678c.2,1.2,1.681-.415,3.947-.057,1.518.244,3.535,1.277,6.012.883,2.8-.445,4.468-2.071,6.788-3.18,1.434-.684,3.926-.2,3.768-.91a92.86,92.86,0,0,1-5.3-10,33.08,33.08,0,0,1-2.351-7.96Z"
                fill="#eaeaea"></path>
            <path id="m"
                d="M131.583,637.827a40.254,40.254,0,0,1-2.207-5.751c-2.143-7.139,5.984-22.944,13.645-21.855a75.9,75.9,0,0,0,10.885-.47c1-.1,3.028-.251,3.028-.251l-1.023,6.787-.155,5.445S133.443,641.687,131.583,637.827Z"
                transform="translate(-526.29 -318.236) rotate(-44.028)" fill="#f5f5f5" fill-rule="evenodd">
            </path>
            <path id="b"
                d="M154.106,654.626s-7.2-1.516-9.789-2.783c-5.269-2.579-9.312-7.368-12.325-13.188h0a10.178,10.178,0,0,0,5.118-2.172c.8-.572.409-.061,1.467-1.023,2.011-1.826,5.367,5.672,7.561,6.964,2.169,1.276,10.625,3.109,10.162,4.766C155.109,651.447,154.106,654.626,154.106,654.626Z"
                transform="translate(-526.29 -318.236) rotate(-44.028)" fill="#f5f5f5" fill-rule="evenodd">
            </path>
            <path id="d"
                d="M177.8,625.772c.764,9.948-3.087,20.348-10.81,26.071-2.584,1.915-3.189,1.875-6.386,2.535a19.463,19.463,0,0,1-6.4.106s.843-2.913,1.566-5.225c.936-3,2.554-10.771,4.582-15.981s3.529-4.858,3.529-4.858,6.294-1.728,9-2.712c.609-.225,4.558-2.425,4.558-2.425S177.766,625.382,177.8,625.772Z"
                transform="translate(-526.29 -318.236) rotate(-44.028)" fill="#f5f5f5" fill-rule="evenodd">
            </path>
            <path id="l"
                d="M176.259,617.745a41.168,41.168,0,0,1,1.239,5.548s-13.839,7.783-18.959,4.332-1.523-18.137-1.523-18.137,2.37-.276,5.762-.339a17.8,17.8,0,0,1,8.208,1.345C173.381,611.612,175.268,614.689,176.259,617.745Z"
                transform="translate(-526.29 -318.236) rotate(-44.028)" fill="#f5f5f5" fill-rule="evenodd">
            </path>
        </g>
        <g id="crown">
            <path id="crown-2" data-name="crown"
                d="M36.625,59.306s6.662-28.562,10.189-34.139S46.031,3.272,34.176,1.206,21.047-.136,18.108,2.342-1.291,10.811.081,21.655,11.74,59.306,11.74,59.306a32.463,32.463,0,0,0,11.032,1.947A67.333,67.333,0,0,0,36.625,59.306Z"
                transform="translate(928.469 551.741)" fill="#f5f5f5" stroke="#707070" stroke-width="0.5">
            </path>
        </g>
        <g id="root">
            <path id="root-2" data-name="root"
                d="M25.026,6.469,21.669,59.506S16.72,94.577,8.976,91.717,5.953,82.279,3.323,58.341.081,6.617.081,6.617a45.08,45.08,0,0,0,11.26,1.6A62.869,62.869,0,0,0,25.026,6.469Z"
                transform="translate(940.142 604.743)" fill="#f2ecbe" stroke="#707070" stroke-width="0.5">
            </path>
        </g>
    </g>
</svg>