<svg xmlns="http://www.w3.org/2000/svg" width="70.167" height="246" viewBox="0 0 70.167 246">
    <g id="bottom4" transform="translate(-868.5 -483.367)">
        <g id="surface" transform="translate(881.103 494.457)">
            <path id="shape"
                d="M37.311,5.7a24.126,24.126,0,0,1,4.851,1.858,24.814,24.814,0,0,1,5.936,4.3,16.059,16.059,0,0,1,4.581,12.68c-.423,4.685-3.1,9.2-6.4,12.388s-7.245,5.065-10.948,7.684a24.408,24.408,0,0,1-4.893,2.59C26.877,48.657,5.343,41.5,3,38.474.691,35.449.767,30.534.4,25.324S-.771,14.642.984,10.339A14.731,14.731,0,0,1,11.623,2.021c.82-.16,1.668-.359,2.814-.64C18.033.5,22.219-.706,25.54.148,29.569,1.226,33.313,4.692,37.311,5.7Z"
                transform="translate(51.863 42.528) rotate(164.991)" fill="#f5f5f5" stroke="#707070" stroke-width="0.5">
            </path>
            <path id="o"
                d="M6.587,16.3a59.752,59.752,0,0,1,2.132,8.731,51.636,51.636,0,0,1,.609,9.426,33.4,33.4,0,0,1,11.06-2.37,34.934,34.934,0,0,1,10.794,1.751,38.472,38.472,0,0,1-.228-8.046,26.487,26.487,0,0,1,1.929-8.224A44.877,44.877,0,0,0,19.258,14.8,38.4,38.4,0,0,0,6.587,16.3Z"
                transform="translate(2.259)" fill="#eaeaea"></path>
            <path id="m"
                d="M6.277-.024a26.35,26.35,0,0,1,6.544,4.538A16.085,16.085,0,0,1,17.7,17.272c-.392,4.693-3.128,9.2-6.516,12.358A60.284,60.284,0,0,1,1.565,36.5,38.806,38.806,0,0,1,0,22.069C1.087,11.585,5.234-.519,6.277-.024Z"
                transform="translate(16.41 44.565) rotate(164.991)" fill="#f5f5f5"></path>
            <path id="d"
                d="M1.188,32.677c-.558-2.353-.4-5.612-.673-8.89C.084,18.559-.807,13.064.97,8.768A14.428,14.428,0,0,1,11.711.568C12.56.416,13.3.19,14.493-.081,16.526-.544,16.8,12.7,12.509,22.143,9.168,29.5,1.388,33.528,1.188,32.677Z"
                transform="translate(51.308 41.014) rotate(164.991)" fill="#f5f5f5"></path>
            <path id="b"
                d="M23.287,6.15A13.29,13.29,0,0,1,26.7,7.324a19.089,19.089,0,0,0-2.4,4.921c-.491,1.4-1.309,3.871-1.8,5.553-.454,1.566-5.482,1.412-11.324.043s-10.155-3.729-9.87-5.722c.168-1.167.3-4.376.3-5.954C1.6,2.778.738,1.616.738,1.616,4.352.784,7.662-.549,11.005.312,15.193,1.433,19.132,5.1,23.287,6.15Z"
                transform="translate(38.084 46.377) rotate(164.991)" fill="#f5f5f5"></path>
            <path id="l"
                d="M34.649,15.094a23.452,23.452,0,0,1-6.219,3.559c-.936.445-5.691-.5-11.944-2.3C10.313,14.564,2.73,11.521,1.449,9.929A10.516,10.516,0,0,1-.285,5.765,9.287,9.287,0,0,0,3.4,4.05C5.339,2.612,6.827.408,7.829-.022c.539-.232,2.077,1.247,5.094,2.928a48.4,48.4,0,0,0,8.645,3.423c6.959,2.1,10.977,1.03,11.469,1.73s.661,2.433.914,4.239a11.24,11.24,0,0,0,.7,2.8Z"
                transform="translate(42.843 15.303) rotate(164.991)" fill="#f5f5f5"></path>
        </g>
        <g id="crown" transform="translate(869.5 419.788)">
            <path id="crown-2" data-name="crown"
                d="M3759.5,545.1s16.773-26.921,4.927-36.9-18.091-23.634-23.477-21.533-24.77,15.493-23.05,27.833,11.1,31.74,11.1,31.74,8.924,4.343,15.924,3.621S3759.5,545.1,3759.5,545.1Z"
                transform="translate(-3708.689 -344.451)" fill="#f5f5f5" stroke="#707070" stroke-width="0.5">
            </path>
        </g>
        <g id="root" transform="translate(878.164 595.543)">
            <path id="root-2" data-name="root"
                d="M30.179,0s1.566,102.233-15.974,100.778c-6.459-.536-3.7-13.1-5.276-26.994C6.855,55.5,1.576,33.5.542,19.76.433,18.309,0,4.4,0,4.4A32.588,32.588,0,0,0,14.654,6.058C22.2,4.957,30.179,0,30.179,0Z"
                transform="translate(12.284 21.393) rotate(7)" fill="#f2ecbe" stroke="#707070" stroke-width="0.5">
            </path>
        </g>
    </g>
</svg>