<svg xmlns="http://www.w3.org/2000/svg" width="72.914" height="246" viewBox="0 0 72.914 246">
    <g id="bottom5" transform="translate(-799.5 -498.367)">
        <g id="surface" transform="translate(813.596 493.396) rotate(17)">
            <path id="shape"
                d="M26.238,40.3a22.178,22.178,0,0,0,.824-10.432c-.558-3.4-1.908-6.556-3.216-10.648a24.765,24.765,0,0,0-6.42-10.249,12.564,12.564,0,0,0-12-2.983A26.552,26.552,0,0,0-4.8,11.563c-3.529,2.852-7.232,5.132-8.947,8.468-1.74,3.352-1.534,7.752-1.611,12.415-.036,4.672-.378,9.623,1.771,12.967,2.132,3.319,6.773,5.054,11.159,7.252,4.4,2.223,8.592,4.916,12.485,4.651,3.9-.307,7.5-3.573,10.3-6.877A29.466,29.466,0,0,0,26.238,40.3Z"
                transform="translate(61.88 18.677) rotate(73.976)" fill="#f5f5f5" stroke="#707070" stroke-width="0.5">
            </path>
            <path id="m"
                d="M-7.785,50.05c1.443.767,3.426,1.646,5.36,2.615,4.4,2.223,8.592,4.916,12.485,4.651,3.9-.307,7.5-3.573,10.3-6.877.771-.907,1.477-1.815,2.3-2.983.8-1.134-8.01-6.377-16.572-5.437C-1.221,42.821-8.337,49.757-7.785,50.05Z"
                transform="translate(61.88 18.677) rotate(73.976)" fill="#f5f5f5"></path>
            <path id="b"
                d="M26.238,40.3a22.178,22.178,0,0,0,.824-10.432,52.286,52.286,0,0,0-3.748-12.079c-.223-.491-1.5-2.266-1.5-2.266s-1.67-.155-4.38,1.74a25.288,25.288,0,0,0-6.46,5.841c-1.493,2,.455,6.063.169,9.7s-.961,2.973-.835,5.295a12.416,12.416,0,0,0,.827,3.925,34.276,34.276,0,0,1,7.157,2.019c2.9,1.323,4.441,3.332,4.61,3.089A24.883,24.883,0,0,0,26.238,40.3Z"
                transform="translate(61.88 18.677) rotate(73.976)" fill="#f5f5f5"></path>
            <path id="d"
                d="M21.735,15.461a26.49,26.49,0,0,0-4.31-6.488,12.564,12.564,0,0,0-12-2.983A26.552,26.552,0,0,0-4.8,11.563c-1.8,1.455-3.645,2.76-5.482,4.336-.584.5,21.584,6.733,21.584,6.733s3.6-4.108,6.584-5.617S21.735,15.461,21.735,15.461Z"
                transform="translate(61.88 18.677) rotate(73.976)" fill="#f5f5f5"></path>
            <path id="l"
                d="M-10.4,15.926a12.972,12.972,0,0,0-3.339,4.1c-1.74,3.352-1.534,7.752-1.611,12.415-.036,4.672-.378,9.623,1.771,12.967,1.222,1.9,3.12,3.194,5.747,4.587.18.1,1.116-1.388,2.651-2.686.758-.634,3.667-2.646,3.667-2.646a4.91,4.91,0,0,1-.88-3.89c.3-2.267,2.171-5.965,2.01-8.592C-.57,29.135-2,25.868-2.711,22.6a16.657,16.657,0,0,1-.069-3.938l-6.391-2.151Z"
                transform="translate(61.88 18.677) rotate(73.976)" fill="#f5f5f5"></path>
            <path id="o"
                d="M18.331,29.363c-.342.408,2.58,2.373,4.089,5.283a21.773,21.773,0,0,1,1.944,6.359c.453.486,3.852-1.9,3.852-1.9a25.648,25.648,0,0,0,5.879-.841c3-.823,3.811-1.8,6.11-2.451s3.022.953,3.061-.137-.01-14.305-.01-14.305-.537-.783-3.771.792-4.336,3.6-8.8,4.963-6.007-.035-9.043.491S18.673,28.955,18.331,29.363Z"
                fill="#eaeaea"></path>
        </g>
        <g id="crown">
            <path id="crown-2"
                d="M1374.52,176.791s4.593-13.817,8.387-22.108,0-17.112,0-17.112-15.547-20.195-19.526-17.112-22.95,8.4-24.338,24.34,7.033,31.886,7.033,31.886a46.119,46.119,0,0,0,13.092,1.973,81.292,81.292,0,0,0,15.352-1.867Z"
                transform="translate(-525.815 460.772)" fill="#f5f5f5" stroke="#707070" stroke-width="0.5">
            </path>
        </g>
        <g id="root">
            <g id="root-2" data-name="root">
                <path id="root-3" data-name="root"
                    d="M29.729-.488s-8.9,80.787-14.75,83.253-4.742-.136-5.952-7.269c-.572-3.374.053-20.523-2.187-37.079C4.341,19.953,1.268.825,1.268.825A54.117,54.117,0,0,0,14.891,2.091,74.231,74.231,0,0,0,29.729-.488Z"
                    transform="translate(819.043 636.482) rotate(3)" fill="#f2ecbe" stroke="#707070" stroke-width="0.5">
                </path>
            </g>
        </g>        
    </g>
</svg>