<svg xmlns="http://www.w3.org/2000/svg" width="74.373" height="246" viewBox="0 0 74.373 246">
    <g id="bottom6" transform="translate(-708.127 -498.367)">
        <g id="surface" transform="translate(716.271 509.151)">
            <path id="shape"
                d="M43.346.545A19.606,19.606,0,0,1,54.57,9.1c2.309,3.87,2.822,8.329,2.733,12.724-.088,4.425-.739,8.757-3.383,12.122-2.644,3.334-7.244,5.641-11.957,7.947-4.713,2.276-9.538,4.521-15.083,5.447-5.545.9-11.736.442-16.474-1.887A19.506,19.506,0,0,1,.894,34.545C-.592,30.26-.391,25.9.224,21.832.8,17.769,1.718,14.006,4.1,10.969S10.3,5.681,14.413,4.03A60.451,60.451,0,0,1,27.9.488C32.878-.292,38.5-.858,43.346.545Z"
                transform="translate(9.009 -6.177) rotate(19.993)" fill="#f5f5f5" stroke="#707070" stroke-width="0.5">
            </path>
            <path id="o"
                d="M15.874,28.253c-.358-.716,1.094-1.889.983-3.9s-2.479-3.685-1.429-4.152c.426-.19,2.462-.039,4.307-.735,1.99-.75,3.1-2.391,3.926-2.389s2.461.861,5.846.2c1.773-.348,4.208-2.373,6.069-2.164.611.068,1.406.954,3.057,1.964s3.659.87,3.548,2.075a54.428,54.428,0,0,0-.223,5.69c.043,1.147.424,2.611-.2,3.057s-2.038.192-3.124.892c-2.428,1.583-4.618,3.3-5.533,3.325s-.807-.722-3.28-.645c-2.007.064-5.136,1.179-7.386.645-.766-.182-.737-.919-1.629-1.315C18.233,29.673,16.232,28.969,15.874,28.253Z"
                fill="#eaeaea"></path>
            <path id="m"
                d="M10.406,45.453A19.506,19.506,0,0,1,.894,34.545C-.592,30.26-.391,25.9.224,21.832c.257-1.808,11.688-3.721,16.668,2.652s-2.176,7.425-3.948,12.488C11.144,42.125,11.8,46.139,10.406,45.453Z"
                transform="translate(9.009 -6.177) rotate(19.993)" fill="#f5f5f5"></path>
            <path id="mb"
                d="M23.2,47.725a27.619,27.619,0,0,1-12.11-1.953c-.043-.015-.239-.11-.239-.11s.423-2.063,1.242-5.317c.328-1.32.954-4.136,2.28-5.78.5-.622,1.829-2.022,2.966-3.344a13.7,13.7,0,0,0,.912-1.209s4.742.659,6.277.857C29.31,31.486,24.651,47.643,23.2,47.725Z"
                transform="translate(9.009 -6.177) rotate(19.993)" fill="#f5f5f5"></path>
            <path id="b"
                d="M39.532,43.052A48.421,48.421,0,0,1,26.88,47.34c-1.015.164-3.411.373-3.411.373A20.363,20.363,0,0,0,25.721,41.6a32.567,32.567,0,0,0,.856-6.832,8.325,8.325,0,0,0-.869-3.442s6.942-3.4,8.176-3.789C39.53,25.776,40.528,42.584,39.532,43.052Z"
                transform="translate(9.009 -6.177) rotate(19.993)" fill="#f5f5f5"></path>
            <path id="db"
                d="M53.92,33.946c-2.644,3.334-7.244,5.641-11.957,7.947-.495.239-2.215,1.055-2.215,1.055a52.232,52.232,0,0,0-1.185-10.4,9.053,9.053,0,0,0-2.771-4.807s3.678-4.408,4.957-5.972C45.027,16.545,56.564,30.582,53.92,33.946Z"
                transform="translate(9.009 -6.177) rotate(19.993)" fill="#f5f5f5"></path>
            <path id="d"
                d="M48.393,2.841A23.07,23.07,0,0,1,54.57,9.1c2.309,3.87,2.822,8.329,2.733,12.724-.078,3.938-.6,7.8-2.745,11.234-.027.046.026-3.646-4.68-8.531A17.692,17.692,0,0,0,45.486,21.2a9.242,9.242,0,0,0-2.911-.626S41.081,15.73,40.3,13.718C37.682,6.97,48.393,2.841,48.393,2.841Z"
                transform="translate(9.009 -6.177) rotate(19.993)" fill="#f5f5f5"></path>
            <path id="dl"
                d="M43.346.545A19.748,19.748,0,0,1,48.2,2.707c.59.353-4.54,1.872-7.008,5.253a8.554,8.554,0,0,0-1.272,4.319s-4.286-.778-5.973-.96C28.3,10.71,30.991.085,32.406-.08a26.259,26.259,0,0,1,10.94.625Z"
                transform="translate(9.009 -6.177) rotate(19.993)" fill="#f5f5f5"></path>
            <path id="l"
                d="M14.413,4.03A60.451,60.451,0,0,1,27.9.488c1.251-.2,2.542-.378,4.164-.552.587-.063-1.894,3-1.894,5.736a9.848,9.848,0,0,0,1.9,5.209s-5.7,5.426-8.156,6C19.111,18.011,12.462,4.813,14.413,4.03Z"
                transform="translate(9.009 -6.177) rotate(19.993)" fill="#f5f5f5"></path>
            <path id="ml"
                d="M.34,21.507s1.378-7.5,3.762-10.538S13.881,4.3,13.881,4.3a21.764,21.764,0,0,0,3.136,7.834,17.008,17.008,0,0,0,4.874,4.518,9.473,9.473,0,0,1-2.34,3.226A22.536,22.536,0,0,1,15.189,22.7a14.351,14.351,0,0,0-2.957-1.536A20.081,20.081,0,0,0,6.878,20.03,11,11,0,0,0,.34,21.507Z"
                transform="translate(9.009 -6.177) rotate(19.993)" fill="#f5f5f5"></path>
        </g>
        <g id="crown">
            <path id="crown-2" data-name="crown"
                d="M3410.22,518.492s14.609-30.467,9.99-37.273-10.324-13.127-20.241-11.02-12.09,9.561-12.09,9.561-6.113-9.886-16.98-6.969c-10.487,2.815-15.914,16.8-13.457,23.056.031.08.937,6.694,3.306,10.755,3.086,5.286,7.135,8.072,7.135,11.3,0,2.672,9.392,2.957,19.339,2.512C3398.37,519.914,3410.22,518.492,3410.22,518.492Z"
                transform="translate(-2641.61 115.078)" fill="#f5f5f5" stroke="#707070" stroke-width="0.5">
            </path>
        </g>
        <g id="root">
            <path id="root-2" data-name="root"
                d="M53.8,0s2.807,40.971-4.121,53.876S30.064,85.554,26.124,80.935,28.31,71.169,30.1,57.08s7.768-22.571,1.247-23.386-5.662,13.689-11.39,26.153S6.48,82.358,2.453,82.176C-1.8,81.982.017,67.465,3.82,52.793c.814-3.14,1.734-4.922,2.542-8.754,2.544-12.07,5.557-32.217,5.292-41.979,0,0,.606,1.172,4.463,1.61,2.581.3,7.982-.1,12.794-.357C39.416,2.764,53.8,0,53.8,0"
                transform="translate(714.801 630.751) rotate(3)" fill="#f2ecbe" stroke="#707070" stroke-width="0.5">
            </path>
        </g>
    </g>
</svg>