<svg xmlns="http://www.w3.org/2000/svg" width="74" height="246" viewBox="0 0 74 246">
    <g id="bottom7" transform="translate(-648.94 -498.367)">
       
        <g id="surface" transform="translate(659.16 509.398)">
            <path id="shape"
                d="M-38.664-75.112c4.6,1.789,8.77,4.443,11.286,7.9,2.552,3.462,3.379,7.7,3.882,12.174.467,4.471.575,9.145-1.617,13.068-2.192,3.894-6.721,7.01-11.753,8.51a30.057,30.057,0,0,1-15.419.087c-4.744-1.24-8.59-3.548-12.867-5.4-4.241-1.846-8.914-3.26-12.364-5.943-3.45-2.654-1.546-17.568,1.474-20.857,2.983-3.289,5.823-6.4,9.6-8.568A29.36,29.36,0,0,1-53.071-77.66a36.4,36.4,0,0,1,14.407,2.543Z"
                transform="translate(87.823 63.168) rotate(-16.024)" fill="#f5f5f5" stroke="#707070" stroke-width="0.5">
            </path>
            <path id="o"
                d="M12.541,30.129c-.075-.79,1.738-2.294,2.238-4.733s-.764-4.521-.37-5.268,1.833-1.061,3.18-2.572,1.386-3.438,2.209-3.47,1.513,1.754,3.461,1.941,3.631-1.667,4.33-1.191.032.953,2.1,2.276,5.683,2.207,6.187,3.016-.123,2.27.827,4.222,3.034,2.788,2.971,3.585-3.759.805-6.015,2.426-2.367,3.955-3.009,4.058c-1.288.206-1.777-1.432-4.927-.834s-7.672,3.225-7.672,3.225c-.888-.013-.972-1.861-2.351-3.532a27.424,27.424,0,0,0-3.159-3.149Z"
                fill="#eaeaea"></path>
            <path id="m"
                d="M-77.518-44.707c-3.45-2.654-1.546-17.568,1.474-20.857,1.083-1.194,2.147-2.365,3.457-3.691.32-.324,8.737.5,12.012,4.444s1.982,6.777-.434,10.228-5.1,1.107-9.23,3.576S-76.672-44.05-77.518-44.707Z"
                transform="translate(87.823 63.168) rotate(-16.024)" fill="#f5f5f5"></path>
            <path id="mb"
                d="M-65.153-38.764c-3.8-1.652-7.937-2.958-11.5-5.312-.127-.081-.649-.465-.649-.465s.915-1.008,2.688-2.779A22.119,22.119,0,0,1-70.209-51a10.126,10.126,0,0,1,3.593-1.3c.686-.109,3.188-.272,3.188-.272s3.987,5.276,3.556,8.729S-62.656-37.686-65.153-38.764Z"
                transform="translate(87.823 63.168) rotate(-16.024)" fill="#f5f5f5"></path>
            <path id="b"
                d="M-46.838-32.488a30.07,30.07,0,0,1-5.448-.882c-4.18-1.093-7.865-3.135-11.842-4.969a6.22,6.22,0,0,0,3.44-2.767,7.586,7.586,0,0,0,.867-3.433s7.717-1.567,10.041-.814C-44.1-43.512-44.925-32.368-46.838-32.488Z"
                transform="translate(87.823 63.168) rotate(-16.024)" fill="#f5f5f5"></path>
            <path id="db"
                d="M-26.967-39.422a21.661,21.661,0,0,1-9.9,5.966,28.921,28.921,0,0,1-9.516,1,13.293,13.293,0,0,0,.969-5.9,11.3,11.3,0,0,0-1.721-4.957,10.151,10.151,0,0,1,8.5-3.951C-33.19-47.193-26.121-40.387-26.967-39.422Z"
                transform="translate(87.823 63.168) rotate(-16.024)" fill="#f5f5f5"></path>
            <path id="d"
                d="M-23.5-55.034c.467,4.471.575,9.145-1.617,13.068a14.6,14.6,0,0,1-1.475,2.112A37.89,37.89,0,0,0-31.65-44.6a14.958,14.958,0,0,0-4.691-2.314,14.092,14.092,0,0,1-2.135-6.068c-.113-2.984,1.556-5.2,5.073-6.878s9.189.417,9.189.417S-23.578-55.761-23.5-55.034Z"
                transform="translate(87.823 63.168) rotate(-16.024)" fill="#f5f5f5"></path>
            <path id="dl"
                d="M-35.114-73.517a21.947,21.947,0,0,1,7.736,6.309,19.738,19.738,0,0,1,3.239,7.9c.074.349-2.645-1.633-7.539-1.2a11.391,11.391,0,0,0-5.039,2.69,5.155,5.155,0,0,0-1.327,2.187s-5.409-4.526-6.295-5.606C-46.98-64.457-35.8-73.868-35.114-73.517Z"
                transform="translate(87.823 63.168) rotate(-16.024)" fill="#f5f5f5"></path>
            <path id="l"
                d="M-38.664-75.112A24.125,24.125,0,0,1-35.718-73.8c.758.389-3.684,3.275-6.447,6.2a17.314,17.314,0,0,0-2.649,4.319,13.147,13.147,0,0,1-3.963.223c-4.766-1.087-6.561-14.53-4.3-14.6A36.4,36.4,0,0,1-38.664-75.112Z"
                transform="translate(87.823 63.168) rotate(-16.024)" fill="#f5f5f5"></path>
            <path id="ml"
                d="M-72.274-69.565a28.259,28.259,0,0,1,5.826-4.566,21.7,21.7,0,0,1,10.724-3.25c.07-.006,1.666-.247,2.049-.259.293-.01-.664,1.607-.275,4.538a40.54,40.54,0,0,0,2.072,7.263A21.17,21.17,0,0,1-57.1-62.106a15.008,15.008,0,0,1-1.609.513s-1.551-3.793-4.393-5.343C-67.072-69.1-72.665-69.176-72.274-69.565Z"
                transform="translate(87.823 63.168) rotate(-16.024)" fill="#f5f5f5"></path>
        </g>
        <g id="crown" transform="translate(649.5 436.289)">
            <path id="crown-2" data-name="crown"
                d="M45.6.315c5.708,1.659,15.644,5.115,15.116,18.8s-6.615,35-6.615,35-14.5,2.444-26.8,1.878A86.83,86.83,0,0,1,4.913,51.857a6.349,6.349,0,0,0-.841-3.2c-4.021-5.465-7.915-20.2-5.429-32.675C.447,6.935,10.02,2.334,13.886,2.8c10.253,1.244,8.245,8.847,14.693,4.977S39.889-1.344,45.6.315Z"
                transform="translate(8.45 150)" fill="#f5f5f5" stroke="#707070" stroke-width="0.5"></path>
        </g>
        <g id="root" transform="translate(657.726 612.543)">
            <path id="root-2" data-name="root"
                d="M52.149,8.8a74.487,74.487,0,0,1-9.21,43.32c-12.356,21.958-20.7,41.492-22.931,27.8s7.236-32.22,6.123-38.64S25.018,30.016,18.9,42.564s-3.228,40.494-3.228,40.494c0-.713-2.783,17.68-12.8-5.133s-1.6-49.963-1.6-49.963L3.135,6.453S9.789,9.324,22,10.3,52.149,8.8,52.149,8.8Z"
                transform="translate(2.04 19.116)" fill="#f2ecbe" stroke="#707070" stroke-width="0.5"></path>
        </g>        
    </g>
</svg>