<svg xmlns="http://www.w3.org/2000/svg" width="71.003" height="246" viewBox="0 0 71.003 246">
    <g id="bottom8" transform="translate(-569.497 -498.367)">       
        <g id="surface" transform="translate(579.252 510.332) rotate(-0.974)">
            <path id="shape"
                d="M29.351,50.747C7.632,51.293-4.942,39.166,1.74,16.128,4.826,5.49,15.131-2.038,26.692.431c18.43,3.935,10,14.027,13.4,24.445,4.576,14.011,7.665,25.409-10.741,25.872Z"
                transform="translate(50.883 3.429) rotate(90.974)" fill="#f5f5f5" stroke="#707070"
                stroke-linecap="round" stroke-linejoin="round" stroke-width="0.5" fill-rule="evenodd"></path>
            <path id="m"
                d="M12.459,16.849a36.7,36.7,0,0,1-8.18-.667,29.21,29.21,0,0,1-5.945-1.713C-2.893,13.87,2.818,1.037,7.35.1a3.279,3.279,0,0,1,2.787.535c1.9,1.349,2.393,5.284,4.515,7.7,2.838,3.232,9.974,5.136,9.119,5.817-1.87,1.491-6.823,2.58-11.313,2.7Z"
                transform="translate(16.902 19.167) rotate(90.974)" fill="#f5f5f5" fill-rule="evenodd"></path>
            <path id="ml"
                d="M16.872,4.07c1.257,5.874,1.142,10.656-2.254,13.817.037-.033-.914-.445-3-1.525-.777-.4-4.454-1.774-6.7-4.7a15.181,15.181,0,0,1-1.494-2.72,19.271,19.271,0,0,0-1.3-2.879C.894,4.165,0,4.07,0,4.07A48.027,48.027,0,0,1,4.5.291C6.03-.4,8.37.147,10.8,1.808,13.627,3.738,16.627,2.924,16.872,4.07Z"
                transform="translate(20.698 28.497) rotate(90.974)" fill="#f5f5f5" fill-rule="evenodd"></path>
            <path id="l"
                d="M9.654,2.041A25.972,25.972,0,0,0,10.7,7.753c.876,2.986,2.5,8.077,2.5,8.077s-.213-.262-1.869-.567a12.722,12.722,0,0,1-3.074-.709c-1.133-.488-2.482-1.611-4.319-2.147a4.827,4.827,0,0,0-3.071,0A13.613,13.613,0,0,1,.02,6.959C.2,3.971-.269,1.84,1.576.456c1.117-.839,2.662-.474,4.819.709S9.613,1,9.654,2.041Z"
                transform="translate(32.791 32.307) rotate(90.974)" fill="#f5f5f5" fill-rule="evenodd"></path>
            <path id="dl"
                d="M5.878-.174C7.4.847,9.833,2.839,10.609,5.115c.758,2.211.563,4.842.58,7.3.016,1.9.028,3.505-.225,3.524a6.488,6.488,0,0,1-2.33-.1c-.836-.212-2.16-1.182-3.582-1.4a3.09,3.09,0,0,0-2.476.878s-4.758-2.964-4.663-4.373C-1.752,5.852,5.356-.526,5.878-.174Z"
                transform="translate(47.198 31.061) rotate(90.974)" fill="#f5f5f5" fill-rule="evenodd"></path>
            <path id="d"
                d="M-1.338,3.656C2.376,1.138,9.091-.506,14,.677a75.99,75.99,0,0,1,7.248,2.34A24.876,24.876,0,0,0,15.98,8.232a18.768,18.768,0,0,0-2.6,6.061s-4.632,1.4-8.614-.343c-.594-.254-1.76-.785-3.281-3.318S-2.19,4.233-1.338,3.656Z"
                transform="translate(50.721 15.591) rotate(90.974)" fill="#f5f5f5" fill-rule="evenodd"></path>
            <path id="db"
                d="M.446,9.755A19.556,19.556,0,0,1,7.62.9c.751-.531,1.144,3.309,2.931,6.058a12.429,12.429,0,0,0,3.808,3.886s-.515,3.654-1.384,4.994C10.219,20.086-.056,10.988.446,9.755Z"
                transform="translate(47.62 6.025) rotate(90.974)" fill="#f5f5f5" fill-rule="evenodd"></path>
            <path id="b"
                d="M.517,18.267a24.835,24.835,0,0,1,0-8.17A61.08,61.08,0,0,1,3.177.073,20.522,20.522,0,0,0,8.593,5.531a12.3,12.3,0,0,0,5.166,1.9,11.2,11.2,0,0,1,.827,3.9,12.8,12.8,0,0,1-.828,4.072C9.985,18.2.617,19.216.517,18.267Z"
                transform="translate(38.126 3.098) rotate(90.974)" fill="#f5f5f5" fill-rule="evenodd"></path>
            <path id="mb"
                d="M14.357,19.776s-2.75-1.083-3.035-1.227C5.429,15.567,1.37,10.67.342,2.7a27.133,27.133,0,0,0,6.835-.457A24.028,24.028,0,0,0,13.35,0,19.473,19.473,0,0,1,17.9,2.541,20.379,20.379,0,0,1,21.5,6.4a32.7,32.7,0,0,0-4.736,6.433,26.287,26.287,0,0,0-2.407,6.943Z"
                transform="translate(22.483 3.038) rotate(90.974)" fill="#f5f5f5" fill-rule="evenodd"></path>
            <path id="o"
                d="M5.578,0A36.134,36.134,0,0,0,9.726.725c.83.088,3.6-.818,3.974-.721s.177,1.379,1.74,2.143,4.356.909,4.525,1.365-.313,2.817-.382,4.816.265,2.444,0,3.2-1.122,1.149-2.055,2.111-1.781,2.941-2.334,2.695a13.328,13.328,0,0,0-4.955-1.015c-2.915-.147-6.069.881-6.481.831A19.233,19.233,0,0,1,.786,12.562c-.908-1.507-.451-1.387-.661-2.438A9.757,9.757,0,0,0-.716,7.89c.261-.667,2.963-3.072,4-4.379C4.721,1.706,4.945-.095,5.578,0Z"
                transform="translate(16.74 16.661) rotate(0.974)" fill="#eaeaea"></path>
        </g>
        <g id="crown">
            <path id="crown-2" data-name="crown"
                d="M3852.28,2632.06s-8.5-16.4-5.312-28.1,8.916-18.836,12.6-19.871,5.317-3.157,11.084.983,7.228,3.1,7.228,3.1,6.1-4.5,12.116-6.262,6.175-3.829,12.841,6.262,1.922,25.355,1.922,25.355-5.235,8.332-5.562,11.541-.7,8.228-.7,8.228a184.576,184.576,0,0,1-24.481,1.362,126.831,126.831,0,0,1-21.741-2.6Z"
                transform="translate(-3271.6 -1992.851)" fill="#f5f5f5" stroke="#707070" stroke-width="0.5">
            </path>
        </g>
        <g id="root">
            <path id="root-2" data-name="root"
                d="M3931.66,2854.96a10.412,10.412,0,0,0,.66,1.441c.794,1.544,2.211,6.666.868,24.071-2.1,27.28-21.525,50.9-28.768,52.633-.948.227-3.877.939-5.063,0s-1.674-2.81-1.731-4.485c-.037-1.08.42-2.188-.224-2.346-.352-.087-.244.483-.427.989-.551,1.509-.868,4.975-3.851,4.3-3.855-.865-3.388-5.917-3.155-21.073s-3.621-15.733-4.322-26.558-.052-30.147-.052-30.147a164.1,164.1,0,0,0,23.062,2.612,156.477,156.477,0,0,0,23-1.437Z"
                transform="translate(-3304.873 -2214.517)" fill="#f2ecbe" stroke="#707070" stroke-width="0.5">
            </path>
        </g>       
    </g>
</svg>