<svg id="icons" enable-background="new 0 0 64 64" height="512" viewBox="0 0 64 64" width="512" xmlns="http://www.w3.org/2000/svg"><g fill="#e6e9ed"><path d="m23 24.995v4.5h-9v-4.5c0-2.48 2.01-4.5 4.5-4.5 2.48 0 4.5 2.02 4.5 4.5z"/><path d="m32 24.995v4.5h-9v-4.5c0-2.48 2.01-4.5 4.49-4.5 2.45 0 4.45 1.96 4.51 4.39z"/><path d="m59 25.495v4h-9v-4.5c0-2.48 2.01-4.5 4.5-4.5 2.48 0 4.5 2.02 4.5 4.5z"/><path d="m40.99 24.995v4.5h-8.99v-4.5c0-.04 0-.07 0-.11.05-2.43 2.05-4.39 4.5-4.39 2.48 0 4.49 2.02 4.49 4.5z"/><path d="m14 24.995v4.5h-9v-4-.5c0-2.48 2.01-4.5 4.5-4.5 2.48 0 4.5 2.02 4.5 4.5z"/><path d="m50 24.995v4.5h-9.01v-4.5c0-2.48 2.02-4.5 4.51-4.5 2.48 0 4.5 2.02 4.5 4.5z"/></g><path d="m63 21.495c0 2.2-1.8 4-4 4v-.5c0-2.48-2.02-4.5-4.5-4.5-2.49 0-4.5 2.02-4.5 4.5 0-2.48-2.02-4.5-4.5-4.5-2.49 0-4.51 2.02-4.51 4.5 0-2.48-2.01-4.5-4.49-4.5-2.45 0-4.45 1.96-4.5 4.39-.06-2.43-2.06-4.39-4.51-4.39-2.48 0-4.49 2.02-4.49 4.5 0-2.48-2.02-4.5-4.5-4.5-2.49 0-4.5 2.02-4.5 4.5 0-2.48-2.02-4.5-4.5-4.5-2.49 0-4.5 2.02-4.5 4.5v.5c-2.2 0-4-1.8-4-4v-7c0-2.2 1.8-4 4-4h54c2.2 0 4 1.8 4 4z" fill="#ec87c0"/><path d="m22.99 41.495c1.1 0 2 .899 2 2v6.01h-15v-6.01c0-1.101.899-2 2-2h2 1 5 1 1z" fill="#e6e9ed"/><path d="m61 49.505c1.1 0 2 .89 2 2 0 1.101-.9 2-2 2h-51.01c-1.11 0-2-.899-2-2 0-1.11.89-2 2-2h15z" fill="#ac92ec"/><path d="m9.99 33.495c0 2.21 1.79 4 4 4v.01h9v-.01c1.1 0 2 .899 2 2 0 1.11-.9 2-2 2h-1-1-1-5-1c-2.21 0-4-1.79-4-4z" fill="#5d9cec"/><path d="m13.998 26c-.553 0-1-.447-1-1 0-1.931-1.568-3.502-3.496-3.502-1.931 0-3.502 1.571-3.502 3.502 0 .553-.447 1-1 1s-1-.447-1-1c0-3.034 2.468-5.502 5.502-5.502 3.03 0 5.496 2.468 5.496 5.502 0 .553-.447 1-1 1z"/><path d="m23.004 26c-.553 0-1-.447-1-1 0-1.931-1.572-3.502-3.504-3.502-1.931 0-3.502 1.571-3.502 3.502 0 .553-.447 1-1 1s-1-.447-1-1c0-3.034 2.468-5.502 5.502-5.502 3.035 0 5.504 2.468 5.504 5.502 0 .553-.447 1-1 1z"/><path d="m31.999 26c-.553 0-1-.447-1-1 0-1.931-1.571-3.502-3.503-3.502-1.927 0-3.495 1.571-3.495 3.502 0 .553-.447 1-1 1s-1-.447-1-1c0-3.034 2.465-5.502 5.495-5.502 3.034 0 5.503 2.468 5.503 5.502 0 .553-.447 1-1 1z"/><path d="m40.994 26c-.553 0-1-.447-1-1 0-1.931-1.568-3.502-3.496-3.502-1.933 0-3.505 1.571-3.505 3.502 0 .553-.447 1-1 1s-1-.447-1-1c0-3.034 2.47-5.502 5.505-5.502 3.03 0 5.496 2.468 5.496 5.502 0 .553-.447 1-1 1z"/><path d="m59 26c-.553 0-1-.447-1-1 0-1.931-1.57-3.502-3.501-3.502-1.929 0-3.498 1.571-3.498 3.502 0 .553-.447 1-1 1s-1-.447-1-1c0-3.034 2.467-5.502 5.498-5.502 3.033 0 5.501 2.468 5.501 5.502 0 .553-.447 1-1 1z"/><path d="m50 26c-.553 0-1-.447-1-1 0-1.931-1.571-3.502-3.502-3.502-1.932 0-3.503 1.571-3.503 3.502 0 .553-.447 1-1 1s-1-.447-1-1c0-3.034 2.469-5.502 5.503-5.502s5.502 2.468 5.502 5.502c0 .553-.447 1-1 1z"/><path d="m31.999 30.494c-.553 0-1-.447-1-1v-4.494c0-.553.447-1 1-1s1 .447 1 1v4.494c0 .553-.447 1-1 1z"/><path d="m40.994 30.494c-.553 0-1-.447-1-1v-4.494c0-.553.447-1 1-1s1 .447 1 1v4.494c0 .553-.447 1-1 1z"/><path d="m50.001 30.494c-.553 0-1-.447-1-1v-4.494c0-.553.447-1 1-1s1 .447 1 1v4.494c0 .553-.447 1-1 1z"/><path d="m5 30.494c-.553 0-1-.447-1-1v-4.494c0-.553.447-1 1-1s1 .447 1 1v4.494c0 .553-.447 1-1 1z"/><path d="m13.998 30.494c-.553 0-1-.447-1-1v-4.494c0-.553.447-1 1-1s1 .447 1 1v4.494c0 .553-.447 1-1 1z"/><path d="m23.004 30.494c-.553 0-1-.447-1-1v-4.494c0-.553.447-1 1-1s1 .447 1 1v4.494c0 .553-.447 1-1 1z"/><path d="m59 30.494c-.553 0-1-.447-1-1v-4.494c0-.553.447-1 1-1s1 .447 1 1v4.494c0 .553-.447 1-1 1z"/><path d="m59 30.498h-54c-.553 0-1-.447-1-1s.447-1 1-1h54c.553 0 1 .447 1 1s-.447 1-1 1z"/><path d="m59 26.496c-.553 0-1-.447-1-1s.447-1 1-1c1.654 0 3-1.346 3-3v-7c0-1.654-1.346-3-3-3h-54c-1.654 0-3 1.346-3 3v7c0 1.654 1.346 3 3 3 .553 0 1 .447 1 1s-.447 1-1 1c-2.757 0-5-2.243-5-5v-7c0-2.757 2.243-5 5-5h54c2.757 0 5 2.243 5 5v7c0 2.757-2.243 5-5 5z"/><path d="m24.996 50.506c-.553 0-1-.447-1-1v-6.004c0-.552-.448-1-1-1h-11.004c-.552 0-1 .448-1 1v6.004c0 .553-.447 1-1 1s-1-.447-1-1v-6.004c0-1.654 1.346-3 3-3h11.004c1.654 0 3 1.346 3 3v6.004c0 .553-.447 1-1 1z"/><path d="m9.992 54.504c-1.654 0-3-1.346-3-3s1.346-3 3-3c.553 0 1 .447 1 1s-.447 1-1 1c-.552 0-1 .448-1 1s.448 1 1 1c.553 0 1 .447 1 1s-.447 1-1 1z"/><path d="m60.999 54.504c-.553 0-1-.447-1-1s.447-1 1-1c.552 0 1-.448 1-1s-.448-1-1-1c-.553 0-1-.447-1-1s.447-1 1-1c1.654 0 3 1.346 3 3s-1.346 3-3 3z"/><path d="m60.999 50.504h-51.007c-.553 0-1-.447-1-1s.447-1 1-1h51.007c.553 0 1 .447 1 1s-.447 1-1 1z"/><path d="m60.999 54.504h-51.007c-.553 0-1-.447-1-1s.447-1 1-1h51.007c.553 0 1 .447 1 1s-.447 1-1 1z"/><path d="m14.992 45.502c-.553 0-1-.447-1-1v-3c0-.553.447-1 1-1s1 .447 1 1v3c0 .553-.447 1-1 1z"/><path d="m19.992 45.502c-.553 0-1-.447-1-1v-3c0-.553.447-1 1-1s1 .447 1 1v3c0 .553-.447 1-1 1z"/><path d="m21.991 42.502h-.997c-.553 0-1-.447-1-1s.447-1 1-1h.997c.553 0 1 .447 1 1s-.447 1-1 1z"/><path d="m13.993 42.496c-2.757 0-5-2.243-5-5 0-.553.447-1 1-1s1 .447 1 1c0 1.654 1.346 3 3 3 .553 0 1 .447 1 1s-.447 1-1 1z"/><path d="m13.993 38.494c-2.757 0-5-2.243-5-5 0-.553.447-1 1-1s1 .447 1 1c0 1.654 1.346 3 3 3 .553 0 1 .447 1 1s-.447 1-1 1z"/><path d="m9.993 38.496c-.553 0-1-.447-1-1v-4.002c0-.553.447-1 1-1s1 .447 1 1v4.002c0 .553-.447 1-1 1z"/><path d="m22.992 42.502c-.553 0-1-.447-1-1s.447-1 1-1c.552 0 1-.448 1-1s-.448-1-1-1c-.553 0-1-.447-1-1s.447-1 1-1c1.654 0 3 1.346 3 3s-1.346 3-3 3z"/><path d="m22.992 38.504h-8.999c-.553 0-1-.447-1-1s.447-1 1-1h8.999c.553 0 1 .447 1 1s-.447 1-1 1z"/></svg>